<svg width="30" height="30" viewBox="0 0 30 30" fill="none" xmlns="http://www.w3.org/2000/svg">
<path d="M16.1864 19.605L12.7227 15.84L12.7636 15.795C15.0738 12.9707 16.7999 9.62888 17.8227 6H21.8182V3H12.2727V0H9.54545V3H0V6H15.2318C14.3182 8.88 12.8727 11.625 10.9091 14.025C9.64091 12.48 8.59091 10.785 7.75909 9H5.03182C6.02727 11.445 7.39091 13.755 9.09546 15.84L2.15455 23.37L4.09091 25.5L10.9091 18L15.15 22.665L16.1864 19.605ZM23.8636 12H21.1364L15 30H17.7273L19.2545 25.5H25.7318L27.2727 30H30L23.8636 12ZM20.2909 22.5L22.5 16.005L24.7091 22.5H20.2909Z" fill="#F2F2F2"/>
</svg>
