<svg width="426" height="40" viewBox="0 0 426 40" fill="none" xmlns="http://www.w3.org/2000/svg">
<g id="LOGO">
<path id="F" d="M1.67048 30V8.78199H15.8842V13.8813H7.70765V16.9878H14.5947V21.7941H7.70765V30H1.67048Z" fill="#F2F2F2"/>
<path id="u" d="M52.7863 8.8418V20.0076C52.7863 23.2314 52.1709 25.4587 50.9986 27.0119C49.4161 29.122 46.5147 30.3822 42.9686 30.3822C39.4811 30.3822 36.4332 29.1806 34.8214 26.924C33.7077 25.3708 33.1509 23.1141 33.1509 20.0076V8.8418H39.1881V19.656C39.1881 21.7074 39.4225 22.909 40.0086 23.7296C40.5948 24.5502 41.6205 25.1363 43.0858 25.1363C44.4046 25.1363 45.3718 24.6674 45.9872 23.9054C46.6613 23.0848 46.9836 21.7367 46.9836 19.656V8.8418H52.7863Z" fill="#F2F2F2"/>
<path id="u_2" d="M385.489 8.8418V20.0076C385.489 23.2314 384.874 25.4587 383.702 27.0119C382.119 29.122 379.218 30.3822 375.672 30.3822C372.184 30.3822 369.136 29.1806 367.524 26.924C366.411 25.3708 365.854 23.1141 365.854 20.0076V8.8418H371.891V19.656C371.891 21.7074 372.126 22.909 372.712 23.7296C373.298 24.5502 374.324 25.1363 375.789 25.1363C377.108 25.1363 378.075 24.6674 378.69 23.9054C379.364 23.0848 379.687 21.7367 379.687 19.656V8.8418H385.489Z" fill="#F2F2F2"/>
<path id="E" d="M72.4049 30.0598V8.8418H86.2376V13.9412H78.442V16.6374H85.036V21.4437H78.442V24.9605H86.5893V30.0598H72.4049Z" fill="#F2F2F2"/>
<path id="E_2" d="M184.303 30.0598V8.8418H198.136V13.9412H190.34V16.6374H196.934V21.4437H190.34V24.9605H198.488V30.0598H184.303Z" fill="#F2F2F2"/>
<path id="A" d="M253.516 30.0598L262.102 8.8418H268.052L276.639 30.0598H270.074L268.579 25.7224H261.311L259.758 30.0598H253.516ZM265.033 15.2893H264.975C264.564 16.6374 264.154 17.8682 263.656 19.2457L262.923 21.2678H267.026L266.323 19.2457C265.824 17.8096 265.443 16.6081 265.033 15.2893Z" fill="#F2F2F2"/>
<path id="A_2" d="M402.27 30.0598L410.856 8.8418H416.806L425.392 30.0598H418.828L417.333 25.7224H410.065L408.512 30.0598H402.27ZM413.787 15.2893H413.728C413.318 16.6374 412.908 17.8682 412.41 19.2457L411.677 21.2678H415.78L415.077 19.2457C414.578 17.8096 414.197 16.6081 413.787 15.2893Z" fill="#F2F2F2"/>
<path id="C" d="M310.303 23.1728V29.122C308.428 30.0012 306.171 30.3822 304.149 30.3822C297.027 30.3822 292.25 25.6345 292.25 19.4801C292.25 13.2085 297.203 8.51943 304.149 8.51943C306.259 8.51943 308.31 8.95903 310.01 9.721V15.6409C308.457 14.6738 306.347 13.8825 304.266 13.8825C300.691 13.8825 298.287 16.1978 298.287 19.4215C298.287 22.4987 300.515 25.0191 304.383 25.0191C306.464 25.0191 308.516 24.2864 310.303 23.1728Z" fill="#F2F2F2"/>
<path id="R" d="M107.592 30.0598V8.8418H115.007C117.586 8.8418 119.491 9.16417 120.956 9.89684C123.008 10.8933 124.385 12.681 124.385 15.4358C124.385 18.0441 123.125 20.0369 120.487 21.1506L126.114 30.0598H119.286L114.567 22.0005H113.63V30.0598H107.592ZM113.63 17.8682H115.124C116.238 17.8682 117.029 17.7217 117.498 17.4286C118.055 17.1063 118.348 16.5494 118.348 15.7582C118.348 14.8497 117.938 14.2928 117.322 13.9998C116.824 13.7653 116.121 13.6481 114.743 13.6481H113.63V17.8682Z" fill="#F2F2F2"/>
<path id="T" d="M150.698 30.0598V13.9412H143.957V8.8418H163.475V13.9412H156.735V30.0598H150.698Z" fill="#F2F2F2"/>
<path id="T_2" d="M335.862 30.0598V13.9412H329.121V8.8418H348.639V13.9412H341.899V30.0598H335.862Z" fill="#F2F2F2"/>
<path id="Subtract" fill-rule="evenodd" clip-rule="evenodd" d="M227.914 31.8622C234.715 31.8622 240.227 26.1098 240.227 19.014C240.227 11.9181 234.715 6.16577 227.914 6.16577C221.114 6.16577 215.602 11.9181 215.602 19.014C215.602 26.1098 221.114 31.8622 227.914 31.8622ZM223.421 27.2378L236.828 19.0136L223.421 10.7894L223.421 27.2378Z" fill="#F2F2F2"/>
</g>
</svg>
