<svg width="1440" height="162" viewBox="0 0 1440 162" fill="none" xmlns="http://www.w3.org/2000/svg">
<rect x="75.979" y="65.9097" width="24.716" height="4.57704" fill="#121112"/>
<rect x="103.441" y="65.9097" width="24.716" height="4.57704" fill="#121112"/>
<rect x="130.903" y="65.9097" width="24.716" height="4.57704" fill="#121112"/>
<rect x="158.365" y="65.9097" width="24.716" height="4.57704" fill="#121112"/>
<rect x="185.828" y="65.9097" width="24.716" height="4.57704" fill="#121112"/>
<rect x="213.29" y="65.9097" width="24.716" height="4.57704" fill="#121112"/>
<rect x="240.752" y="65.9097" width="24.716" height="4.57704" fill="#121112"/>
<rect x="268.214" y="65.9097" width="24.716" height="4.57704" fill="#121112"/>
<rect x="295.677" y="65.9097" width="24.716" height="4.57704" fill="#121112"/>
<rect x="323.139" y="65.9097" width="24.716" height="4.57704" fill="#121112"/>
<rect x="900.148" y="65.9097" width="24.716" height="4.57704" fill="#121112"/>
<rect x="927.611" y="65.9097" width="24.716" height="4.57704" fill="#121112"/>
<rect y="65.9097" width="73.2327" height="4.57704" fill="#121112"/>
<rect opacity="0.4" x="75.979" y="21.9697" width="24.716" height="4.57704" fill="#A8A4A6"/>
<rect opacity="0.4" x="103.441" y="21.9697" width="24.716" height="4.57704" fill="#A8A4A6"/>
<rect opacity="0.4" x="130.903" y="21.9697" width="24.716" height="4.57704" fill="#A8A4A6"/>
<rect opacity="0.4" x="158.365" y="21.9697" width="24.716" height="4.57704" fill="#A8A4A6"/>
<rect opacity="0.4" x="185.828" y="21.9697" width="24.716" height="4.57704" fill="#A8A4A6"/>
<rect opacity="0.4" x="295.677" y="21.9697" width="24.716" height="4.57704" fill="#A8A4A6"/>
<rect opacity="0.4" x="323.139" y="21.9697" width="24.716" height="4.57704" fill="#A8A4A6"/>
<rect opacity="0.4" x="213.29" y="21.9697" width="24.716" height="4.57704" fill="#A8A4A6"/>
<rect opacity="0.4" x="240.752" y="21.9697" width="24.716" height="4.57704" fill="#A8A4A6"/>
<rect opacity="0.4" x="900.148" y="21.9697" width="24.716" height="4.57704" fill="#A8A4A6"/>
<rect opacity="0.4" x="927.611" y="21.9697" width="24.716" height="4.57704" fill="#A8A4A6"/>
<rect opacity="0.4" y="21.9697" width="73.2327" height="4.57704" fill="#A8A4A6"/>
<rect opacity="0.8" x="75.979" y="51.2627" width="24.716" height="4.57704" fill="#413E40"/>
<rect opacity="0.8" x="103.441" y="51.2627" width="24.716" height="4.57704" fill="#413E40"/>
<rect opacity="0.8" x="130.903" y="51.2627" width="24.716" height="4.57704" fill="#413E40"/>
<rect opacity="0.8" x="158.365" y="51.2627" width="24.716" height="4.57704" fill="#413E40"/>
<rect opacity="0.8" x="295.677" y="51.2627" width="24.716" height="4.57704" fill="#413E40"/>
<rect opacity="0.8" x="323.139" y="51.2627" width="24.716" height="4.57704" fill="#413E40"/>
<rect opacity="0.8" x="185.828" y="51.2627" width="24.716" height="4.57704" fill="#413E40"/>
<rect opacity="0.8" x="213.29" y="51.2627" width="24.716" height="4.57704" fill="#413E40"/>
<rect opacity="0.8" x="240.752" y="51.2627" width="24.716" height="4.57704" fill="#413E40"/>
<rect opacity="0.8" x="268.214" y="51.2627" width="24.716" height="4.57704" fill="#413E40"/>
<rect opacity="0.8" x="900.148" y="51.2627" width="24.716" height="4.57704" fill="#413E40"/>
<rect opacity="0.4" x="295.677" y="7.32324" width="24.716" height="4.57704" fill="#DAD8D9"/>
<rect opacity="0.4" x="323.139" y="7.32324" width="24.716" height="4.57704" fill="#DAD8D9"/>
<rect opacity="0.8" x="927.611" y="51.2627" width="24.716" height="4.57704" fill="#413E40"/>
<rect opacity="0.8" y="51.2627" width="73.2327" height="4.57704" fill="#413E40"/>
<rect opacity="0.4" x="130.903" y="7.32324" width="24.716" height="4.57704" fill="#DAD8D9"/>
<rect opacity="0.4" x="158.365" y="7.32324" width="24.716" height="4.57704" fill="#DAD8D9"/>
<rect opacity="0.4" x="185.828" y="7.32324" width="24.716" height="4.57704" fill="#DAD8D9"/>
<rect opacity="0.4" x="240.752" y="7.32324" width="24.716" height="4.57704" fill="#DAD8D9"/>
<rect opacity="0.4" y="7.32324" width="73.2327" height="4.57704" fill="#DAD8D9"/>
<rect opacity="0.5" x="295.677" y="36.6167" width="24.716" height="4.57704" fill="#767073"/>
<rect opacity="0.5" x="323.139" y="36.6167" width="24.716" height="4.57704" fill="#767073"/>
<rect opacity="0.5" x="75.979" y="36.6167" width="24.716" height="4.57704" fill="#767073"/>
<rect opacity="0.5" x="103.441" y="36.6167" width="24.716" height="4.57704" fill="#767073"/>
<rect opacity="0.5" x="130.903" y="36.6167" width="24.716" height="4.57704" fill="#767073"/>
<rect opacity="0.5" x="158.365" y="36.6167" width="24.716" height="4.57704" fill="#767073"/>
<rect opacity="0.5" x="185.828" y="36.6167" width="24.716" height="4.57704" fill="#767073"/>
<rect opacity="0.5" x="213.29" y="36.6167" width="24.716" height="4.57704" fill="#767073"/>
<rect opacity="0.5" x="240.752" y="36.6167" width="24.716" height="4.57704" fill="#767073"/>
<rect opacity="0.5" x="268.214" y="36.6167" width="24.716" height="4.57704" fill="#767073"/>
<rect opacity="0.5" x="900.148" y="36.6167" width="24.716" height="4.57704" fill="#767073"/>
<rect opacity="0.8" x="295.677" y="58.5864" width="24.716" height="4.57704" fill="#1F1E1F"/>
<rect opacity="0.8" x="323.139" y="58.5864" width="24.716" height="4.57704" fill="#1F1E1F"/>
<rect opacity="0.5" x="927.611" y="36.6167" width="24.716" height="4.57704" fill="#767073"/>
<rect opacity="0.5" y="36.6167" width="73.2327" height="4.57704" fill="#767073"/>
<rect opacity="0.8" x="75.979" y="58.5864" width="24.716" height="4.57704" fill="#1F1E1F"/>
<rect opacity="0.8" x="103.441" y="58.5864" width="24.716" height="4.57704" fill="#1F1E1F"/>
<rect opacity="0.8" x="130.903" y="58.5864" width="24.716" height="4.57704" fill="#1F1E1F"/>
<rect opacity="0.8" x="158.365" y="58.5864" width="24.716" height="4.57704" fill="#1F1E1F"/>
<rect opacity="0.4" x="295.677" y="14.6465" width="24.716" height="4.57704" fill="#CDCBCC"/>
<rect opacity="0.4" x="323.139" y="14.6465" width="24.716" height="4.57704" fill="#CDCBCC"/>
<rect opacity="0.8" x="185.828" y="58.5864" width="24.716" height="4.57704" fill="#1F1E1F"/>
<rect opacity="0.8" x="213.29" y="58.5864" width="24.716" height="4.57704" fill="#1F1E1F"/>
<rect opacity="0.8" x="240.752" y="58.5864" width="24.716" height="4.57704" fill="#1F1E1F"/>
<rect opacity="0.8" x="268.214" y="58.5864" width="24.716" height="4.57704" fill="#1F1E1F"/>
<rect opacity="0.8" x="900.148" y="58.5864" width="24.716" height="4.57704" fill="#1F1E1F"/>
<rect opacity="0.8" x="927.611" y="58.5864" width="24.716" height="4.57704" fill="#1F1E1F"/>
<rect opacity="0.8" y="58.5864" width="73.2327" height="4.57704" fill="#1F1E1F"/>
<rect opacity="0.4" x="75.979" y="14.6465" width="24.716" height="4.57704" fill="#CDCBCC"/>
<rect opacity="0.4" x="130.903" y="14.6465" width="24.716" height="4.57704" fill="#CDCBCC"/>
<rect opacity="0.5" x="295.677" y="43.9395" width="24.716" height="4.57704" fill="#545052"/>
<rect opacity="0.5" x="323.139" y="43.9395" width="24.716" height="4.57704" fill="#545052"/>
<rect opacity="0.4" x="158.365" y="14.6465" width="24.716" height="4.57704" fill="#CDCBCC"/>
<rect opacity="0.4" x="185.828" y="14.6465" width="24.716" height="4.57704" fill="#CDCBCC"/>
<rect opacity="0.4" x="240.752" y="14.6465" width="24.716" height="4.57704" fill="#CDCBCC"/>
<rect opacity="0.4" x="295.677" width="24.716" height="4.57704" fill="#E6E5E6"/>
<rect opacity="0.4" x="323.139" width="24.716" height="4.57704" fill="#E6E5E6"/>
<rect opacity="0.4" x="927.611" y="14.6465" width="24.716" height="4.57704" fill="#CDCBCC"/>
<rect opacity="0.4" y="14.6465" width="73.2327" height="4.57704" fill="#CDCBCC"/>
<rect opacity="0.5" x="75.979" y="43.9395" width="24.716" height="4.57704" fill="#545052"/>
<rect opacity="0.5" x="103.441" y="43.9395" width="24.716" height="4.57704" fill="#545052"/>
<rect opacity="0.5" x="130.903" y="43.9395" width="24.716" height="4.57704" fill="#545052"/>
<rect opacity="0.5" x="158.365" y="43.9395" width="24.716" height="4.57704" fill="#545052"/>
<rect opacity="0.5" x="185.828" y="43.9395" width="24.716" height="4.57704" fill="#545052"/>
<rect opacity="0.5" x="213.29" y="43.9395" width="24.716" height="4.57704" fill="#545052"/>
<rect opacity="0.4" x="295.677" y="29.293" width="24.716" height="4.57704" fill="#888285"/>
<rect opacity="0.4" x="323.139" y="29.293" width="24.716" height="4.57704" fill="#888285"/>
<rect opacity="0.5" x="240.752" y="43.9395" width="24.716" height="4.57704" fill="#545052"/>
<rect x="350.601" y="65.9097" width="24.716" height="4.57704" fill="#121112"/>
<rect x="625.224" y="65.9097" width="24.716" height="4.57704" fill="#121112"/>
<rect x="378.063" y="65.9097" width="24.716" height="4.57704" fill="#121112"/>
<rect x="652.686" y="65.9097" width="24.716" height="4.57704" fill="#121112"/>
<rect x="405.525" y="65.9097" width="24.716" height="4.57704" fill="#121112"/>
<rect opacity="0.5" x="268.214" y="43.9395" width="24.716" height="4.57704" fill="#545052"/>
<rect x="432.988" y="65.9097" width="24.716" height="4.57704" fill="#121112"/>
<rect opacity="0.5" x="900.148" y="43.9395" width="24.716" height="4.57704" fill="#545052"/>
<rect x="460.45" y="65.9097" width="24.716" height="4.57704" fill="#121112"/>
<rect opacity="0.5" x="927.611" y="43.9395" width="24.716" height="4.57704" fill="#545052"/>
<rect x="487.913" y="65.9097" width="24.716" height="4.57704" fill="#121112"/>
<rect opacity="0.5" y="43.9395" width="73.2327" height="4.57704" fill="#545052"/>
<rect x="515.375" y="65.9097" width="24.716" height="4.57704" fill="#121112"/>
<rect opacity="0.4" x="130.903" width="24.716" height="4.57704" fill="#E6E5E6"/>
<rect x="542.837" y="65.9097" width="24.716" height="4.57704" fill="#121112"/>
<rect opacity="0.4" x="158.365" width="24.716" height="4.57704" fill="#E6E5E6"/>
<rect x="570.299" y="65.9097" width="24.716" height="4.57704" fill="#121112"/>
<rect opacity="0.4" x="185.828" width="24.716" height="4.57704" fill="#E6E5E6"/>
<rect x="597.762" y="65.9097" width="24.716" height="4.57704" fill="#121112"/>
<rect opacity="0.4" x="350.601" y="21.9697" width="24.716" height="4.57704" fill="#A8A4A6"/>
<rect opacity="0.4" x="625.224" y="21.9697" width="24.716" height="4.57704" fill="#A8A4A6"/>
<rect opacity="0.4" x="378.063" y="21.9697" width="24.716" height="4.57704" fill="#A8A4A6"/>
<rect opacity="0.4" x="652.686" y="21.9697" width="24.716" height="4.57704" fill="#A8A4A6"/>
<rect opacity="0.4" x="405.525" y="21.9697" width="24.716" height="4.57704" fill="#A8A4A6"/>
<rect opacity="0.4" x="432.988" y="21.9697" width="24.716" height="4.57704" fill="#A8A4A6"/>
<rect opacity="0.4" x="75.979" y="29.293" width="24.716" height="4.57704" fill="#888285"/>
<rect opacity="0.4" x="460.45" y="21.9697" width="24.716" height="4.57704" fill="#A8A4A6"/>
<rect opacity="0.4" x="103.441" y="29.293" width="24.716" height="4.57704" fill="#888285"/>
<rect opacity="0.4" x="515.375" y="21.9697" width="24.716" height="4.57704" fill="#A8A4A6"/>
<rect opacity="0.4" x="130.903" y="29.293" width="24.716" height="4.57704" fill="#888285"/>
<rect opacity="0.4" x="570.299" y="21.9697" width="24.716" height="4.57704" fill="#A8A4A6"/>
<rect opacity="0.4" x="542.837" y="21.9697" width="24.716" height="4.57704" fill="#A8A4A6"/>
<rect opacity="0.4" x="158.365" y="29.293" width="24.716" height="4.57704" fill="#888285"/>
<rect opacity="0.4" x="597.762" y="21.9697" width="24.716" height="4.57704" fill="#A8A4A6"/>
<rect opacity="0.4" x="185.828" y="29.293" width="24.716" height="4.57704" fill="#888285"/>
<rect opacity="0.8" x="350.601" y="51.2627" width="24.716" height="4.57704" fill="#413E40"/>
<rect opacity="0.8" x="625.224" y="51.2627" width="24.716" height="4.57704" fill="#413E40"/>
<rect opacity="0.8" x="378.063" y="51.2627" width="24.716" height="4.57704" fill="#413E40"/>
<rect opacity="0.8" x="652.686" y="51.2627" width="24.716" height="4.57704" fill="#413E40"/>
<rect opacity="0.8" x="405.525" y="51.2627" width="24.716" height="4.57704" fill="#413E40"/>
<rect opacity="0.4" x="213.29" y="29.293" width="24.716" height="4.57704" fill="#888285"/>
<rect opacity="0.8" x="432.988" y="51.2627" width="24.716" height="4.57704" fill="#413E40"/>
<rect opacity="0.4" x="240.752" y="29.293" width="24.716" height="4.57704" fill="#888285"/>
<rect opacity="0.8" x="460.45" y="51.2627" width="24.716" height="4.57704" fill="#413E40"/>
<rect opacity="0.4" x="268.214" y="29.293" width="24.716" height="4.57704" fill="#888285"/>
<rect opacity="0.8" x="487.913" y="51.2627" width="24.716" height="4.57704" fill="#413E40"/>
<rect opacity="0.4" x="900.148" y="29.293" width="24.716" height="4.57704" fill="#888285"/>
<rect opacity="0.8" x="515.375" y="51.2627" width="24.716" height="4.57704" fill="#413E40"/>
<rect opacity="0.4" x="927.611" y="29.293" width="24.716" height="4.57704" fill="#888285"/>
<rect opacity="0.8" x="542.837" y="51.2627" width="24.716" height="4.57704" fill="#413E40"/>
<rect opacity="0.4" y="29.293" width="73.2327" height="4.57704" fill="#888285"/>
<rect opacity="0.8" x="570.299" y="51.2627" width="24.716" height="4.57704" fill="#413E40"/>
<rect x="955.073" y="65.9097" width="24.716" height="4.57704" fill="#121112"/>
<rect opacity="0.8" x="597.762" y="51.2627" width="24.716" height="4.57704" fill="#413E40"/>
<rect x="1229.7" y="65.9097" width="24.716" height="4.57704" fill="#121112"/>
<rect x="1311.85" y="65.5488" width="24.716" height="4.57704" fill="#121112"/>
<rect opacity="0.4" x="405.525" y="7.32324" width="24.716" height="4.57704" fill="#DAD8D9"/>
<rect x="982.536" y="65.9097" width="24.716" height="4.57704" fill="#121112"/>
<rect x="1257.16" y="65.9097" width="24.716" height="4.57704" fill="#121112"/>
<rect x="1339.31" y="65.5488" width="24.716" height="4.57704" fill="#121112"/>
<rect x="1010" y="65.9097" width="24.716" height="4.57704" fill="#121112"/>
<rect opacity="0.4" x="515.375" y="7.32324" width="24.716" height="4.57704" fill="#DAD8D9"/>
<rect opacity="0.4" x="570.299" y="7.32324" width="24.716" height="4.57704" fill="#DAD8D9"/>
<rect opacity="0.4" x="625.224" y="7.32324" width="24.716" height="4.57704" fill="#DAD8D9"/>
<rect x="680.148" y="65.9097" width="24.716" height="4.57704" fill="#121112"/>
<rect opacity="0.4" x="597.762" y="7.32324" width="24.716" height="4.57704" fill="#DAD8D9"/>
<rect x="1037.46" y="65.9097" width="24.716" height="4.57704" fill="#121112"/>
<rect opacity="0.5" x="350.601" y="36.6167" width="24.716" height="4.57704" fill="#767073"/>
<rect opacity="0.5" x="625.224" y="36.6167" width="24.716" height="4.57704" fill="#767073"/>
<rect opacity="0.5" x="378.063" y="36.6167" width="24.716" height="4.57704" fill="#767073"/>
<rect opacity="0.5" x="652.686" y="36.6167" width="24.716" height="4.57704" fill="#767073"/>
<rect opacity="0.5" x="405.525" y="36.6167" width="24.716" height="4.57704" fill="#767073"/>
<rect x="707.61" y="65.9097" width="24.716" height="4.57704" fill="#121112"/>
<rect opacity="0.5" x="432.988" y="36.6167" width="24.716" height="4.57704" fill="#767073"/>
<rect x="1064.92" y="65.9097" width="24.716" height="4.57704" fill="#121112"/>
<rect opacity="0.5" x="460.45" y="36.6167" width="24.716" height="4.57704" fill="#767073"/>
<rect x="735.073" y="65.9097" width="24.716" height="4.57704" fill="#121112"/>
<rect opacity="0.5" x="487.913" y="36.6167" width="24.716" height="4.57704" fill="#767073"/>
<rect x="1092.38" y="65.9097" width="24.716" height="4.57704" fill="#121112"/>
<rect opacity="0.5" x="515.375" y="36.6167" width="24.716" height="4.57704" fill="#767073"/>
<rect x="762.535" y="65.9097" width="24.716" height="4.57704" fill="#121112"/>
<rect opacity="0.5" x="542.837" y="36.6167" width="24.716" height="4.57704" fill="#767073"/>
<rect x="1119.85" y="65.9097" width="24.716" height="4.57704" fill="#121112"/>
<rect opacity="0.5" x="570.299" y="36.6167" width="24.716" height="4.57704" fill="#767073"/>
<rect x="789.997" y="65.9097" width="24.716" height="4.57704" fill="#121112"/>
<rect opacity="0.5" x="597.762" y="36.6167" width="24.716" height="4.57704" fill="#767073"/>
<rect x="1147.31" y="65.9097" width="24.716" height="4.57704" fill="#121112"/>
<rect opacity="0.8" x="350.601" y="58.5864" width="24.716" height="4.57704" fill="#1F1E1F"/>
<rect opacity="0.8" x="625.224" y="58.5864" width="24.716" height="4.57704" fill="#1F1E1F"/>
<rect opacity="0.8" x="378.063" y="58.5864" width="24.716" height="4.57704" fill="#1F1E1F"/>
<rect opacity="0.8" x="652.686" y="58.5864" width="24.716" height="4.57704" fill="#1F1E1F"/>
<rect opacity="0.8" x="405.525" y="58.5864" width="24.716" height="4.57704" fill="#1F1E1F"/>
<rect x="817.459" y="65.9097" width="24.716" height="4.57704" fill="#121112"/>
<rect opacity="0.8" x="432.988" y="58.5864" width="24.716" height="4.57704" fill="#1F1E1F"/>
<rect x="1174.77" y="65.9097" width="24.716" height="4.57704" fill="#121112"/>
<rect opacity="0.8" x="460.45" y="58.5864" width="24.716" height="4.57704" fill="#1F1E1F"/>
<rect x="844.922" y="65.9097" width="24.716" height="4.57704" fill="#121112"/>
<rect opacity="0.8" x="487.913" y="58.5864" width="24.716" height="4.57704" fill="#1F1E1F"/>
<rect x="1202.23" y="65.9097" width="24.716" height="4.57704" fill="#121112"/>
<rect x="1284.38" y="65.5488" width="24.716" height="4.57704" fill="#121112"/>
<rect opacity="0.8" x="515.375" y="58.5864" width="24.716" height="4.57704" fill="#1F1E1F"/>
<rect x="872.384" y="65.9097" width="24.716" height="4.57704" fill="#121112"/>
<rect opacity="0.8" x="542.837" y="58.5864" width="24.716" height="4.57704" fill="#1F1E1F"/>
<rect opacity="0.4" x="955.073" y="21.9697" width="24.716" height="4.57704" fill="#A8A4A6"/>
<rect opacity="0.8" x="570.299" y="58.5864" width="24.716" height="4.57704" fill="#1F1E1F"/>
<rect opacity="0.4" x="1229.7" y="21.9697" width="24.716" height="4.57704" fill="#A8A4A6"/>
<rect opacity="0.4" x="1311.85" y="21.6089" width="24.716" height="4.57704" fill="#A8A4A6"/>
<rect opacity="0.8" x="597.762" y="58.5864" width="24.716" height="4.57704" fill="#1F1E1F"/>
<rect opacity="0.4" x="982.536" y="21.9697" width="24.716" height="4.57704" fill="#A8A4A6"/>
<rect opacity="0.4" x="350.601" y="14.6465" width="24.716" height="4.57704" fill="#CDCBCC"/>
<rect opacity="0.4" x="625.224" y="14.6465" width="24.716" height="4.57704" fill="#CDCBCC"/>
<rect opacity="0.4" x="405.525" y="14.6465" width="24.716" height="4.57704" fill="#CDCBCC"/>
<rect opacity="0.4" x="1257.16" y="21.9697" width="24.716" height="4.57704" fill="#A8A4A6"/>
<rect opacity="0.4" x="1339.31" y="21.6089" width="24.716" height="4.57704" fill="#A8A4A6"/>
<rect opacity="0.4" x="432.988" y="14.6465" width="24.716" height="4.57704" fill="#CDCBCC"/>
<rect opacity="0.4" x="1010" y="21.9697" width="24.716" height="4.57704" fill="#A8A4A6"/>
<rect opacity="0.4" x="680.148" y="21.9697" width="24.716" height="4.57704" fill="#A8A4A6"/>
<rect opacity="0.4" x="515.375" y="14.6465" width="24.716" height="4.57704" fill="#CDCBCC"/>
<rect opacity="0.4" x="570.299" y="14.6465" width="24.716" height="4.57704" fill="#CDCBCC"/>
<rect opacity="0.4" x="542.837" y="14.6465" width="24.716" height="4.57704" fill="#CDCBCC"/>
<rect opacity="0.4" x="1037.46" y="21.9697" width="24.716" height="4.57704" fill="#A8A4A6"/>
<rect opacity="0.4" x="597.762" y="14.6465" width="24.716" height="4.57704" fill="#CDCBCC"/>
<rect opacity="0.4" x="707.61" y="21.9697" width="24.716" height="4.57704" fill="#A8A4A6"/>
<rect opacity="0.5" x="350.601" y="43.9395" width="24.716" height="4.57704" fill="#545052"/>
<rect opacity="0.5" x="625.224" y="43.9395" width="24.716" height="4.57704" fill="#545052"/>
<rect opacity="0.5" x="378.063" y="43.9395" width="24.716" height="4.57704" fill="#545052"/>
<rect opacity="0.5" x="652.686" y="43.9395" width="24.716" height="4.57704" fill="#545052"/>
<rect opacity="0.5" x="405.525" y="43.9395" width="24.716" height="4.57704" fill="#545052"/>
<rect opacity="0.4" x="1064.92" y="21.9697" width="24.716" height="4.57704" fill="#A8A4A6"/>
<rect opacity="0.5" x="432.988" y="43.9395" width="24.716" height="4.57704" fill="#545052"/>
<rect opacity="0.4" x="735.073" y="21.9697" width="24.716" height="4.57704" fill="#A8A4A6"/>
<rect opacity="0.5" x="460.45" y="43.9395" width="24.716" height="4.57704" fill="#545052"/>
<rect opacity="0.4" x="1119.85" y="21.9697" width="24.716" height="4.57704" fill="#A8A4A6"/>
<rect opacity="0.5" x="487.913" y="43.9395" width="24.716" height="4.57704" fill="#545052"/>
<rect opacity="0.4" x="789.997" y="21.9697" width="24.716" height="4.57704" fill="#A8A4A6"/>
<rect opacity="0.5" x="515.375" y="43.9395" width="24.716" height="4.57704" fill="#545052"/>
<rect opacity="0.5" x="542.837" y="43.9395" width="24.716" height="4.57704" fill="#545052"/>
<rect opacity="0.4" x="1147.31" y="21.9697" width="24.716" height="4.57704" fill="#A8A4A6"/>
<rect opacity="0.5" x="570.299" y="43.9395" width="24.716" height="4.57704" fill="#545052"/>
<rect opacity="0.4" x="844.922" y="21.9697" width="24.716" height="4.57704" fill="#A8A4A6"/>
<rect opacity="0.5" x="597.762" y="43.9395" width="24.716" height="4.57704" fill="#545052"/>
<rect opacity="0.4" x="1202.23" y="21.9697" width="24.716" height="4.57704" fill="#A8A4A6"/>
<rect opacity="0.4" x="1284.38" y="21.6089" width="24.716" height="4.57704" fill="#A8A4A6"/>
<rect opacity="0.4" x="405.525" width="24.716" height="4.57704" fill="#E6E5E6"/>
<rect opacity="0.4" x="872.384" y="21.9697" width="24.716" height="4.57704" fill="#A8A4A6"/>
<rect opacity="0.8" x="955.073" y="51.2627" width="24.716" height="4.57704" fill="#413E40"/>
<rect opacity="0.4" x="570.299" width="24.716" height="4.57704" fill="#E6E5E6"/>
<rect opacity="0.4" x="597.762" width="24.716" height="4.57704" fill="#E6E5E6"/>
<rect opacity="0.8" x="1229.7" y="51.2627" width="24.716" height="4.57704" fill="#413E40"/>
<rect opacity="0.8" x="1311.85" y="50.9019" width="24.716" height="4.57704" fill="#413E40"/>
<rect opacity="0.4" x="350.601" y="29.293" width="24.716" height="4.57704" fill="#888285"/>
<rect opacity="0.4" x="625.224" y="29.293" width="24.716" height="4.57704" fill="#888285"/>
<rect opacity="0.4" x="378.063" y="29.293" width="24.716" height="4.57704" fill="#888285"/>
<rect opacity="0.4" x="652.686" y="29.293" width="24.716" height="4.57704" fill="#888285"/>
<rect opacity="0.4" x="405.525" y="29.293" width="24.716" height="4.57704" fill="#888285"/>
<rect opacity="0.8" x="982.536" y="51.2627" width="24.716" height="4.57704" fill="#413E40"/>
<rect opacity="0.4" x="432.988" y="29.293" width="24.716" height="4.57704" fill="#888285"/>
<rect opacity="0.8" x="1257.16" y="51.2627" width="24.716" height="4.57704" fill="#413E40"/>
<rect opacity="0.8" x="1339.31" y="50.9019" width="24.716" height="4.57704" fill="#413E40"/>
<rect opacity="0.4" x="460.45" y="29.293" width="24.716" height="4.57704" fill="#888285"/>
<rect opacity="0.8" x="1010" y="51.2627" width="24.716" height="4.57704" fill="#413E40"/>
<rect opacity="0.4" x="487.913" y="29.293" width="24.716" height="4.57704" fill="#888285"/>
<rect opacity="0.4" x="515.375" y="29.293" width="24.716" height="4.57704" fill="#888285"/>
<rect opacity="0.8" x="680.148" y="51.2627" width="24.716" height="4.57704" fill="#413E40"/>
<rect opacity="0.4" x="542.837" y="29.293" width="24.716" height="4.57704" fill="#888285"/>
<rect opacity="0.8" x="1037.46" y="51.2627" width="24.716" height="4.57704" fill="#413E40"/>
<rect opacity="0.4" x="570.299" y="29.293" width="24.716" height="4.57704" fill="#888285"/>
<rect opacity="0.8" x="707.61" y="51.2627" width="24.716" height="4.57704" fill="#413E40"/>
<rect opacity="0.4" x="597.762" y="29.293" width="24.716" height="4.57704" fill="#888285"/>
<rect opacity="0.8" x="1064.92" y="51.2627" width="24.716" height="4.57704" fill="#413E40"/>
<rect opacity="0.8" x="735.073" y="51.2627" width="24.716" height="4.57704" fill="#413E40"/>
<rect opacity="0.8" x="1092.38" y="51.2627" width="24.716" height="4.57704" fill="#413E40"/>
<rect opacity="0.8" x="762.535" y="51.2627" width="24.716" height="4.57704" fill="#413E40"/>
<rect opacity="0.8" x="1119.85" y="51.2627" width="24.716" height="4.57704" fill="#413E40"/>
<rect opacity="0.8" x="789.997" y="51.2627" width="24.716" height="4.57704" fill="#413E40"/>
<rect opacity="0.8" x="1147.31" y="51.2627" width="24.716" height="4.57704" fill="#413E40"/>
<rect opacity="0.8" x="817.459" y="51.2627" width="24.716" height="4.57704" fill="#413E40"/>
<rect opacity="0.8" x="1174.77" y="51.2627" width="24.716" height="4.57704" fill="#413E40"/>
<rect opacity="0.8" x="844.922" y="51.2627" width="24.716" height="4.57704" fill="#413E40"/>
<rect opacity="0.8" x="1202.23" y="51.2627" width="24.716" height="4.57704" fill="#413E40"/>
<rect opacity="0.8" x="1284.38" y="50.9019" width="24.716" height="4.57704" fill="#413E40"/>
<rect opacity="0.8" x="872.384" y="51.2627" width="24.716" height="4.57704" fill="#413E40"/>
<rect opacity="0.4" x="1010" y="7.32324" width="24.716" height="4.57704" fill="#DAD8D9"/>
<rect opacity="0.4" x="680.148" y="7.32324" width="24.716" height="4.57704" fill="#DAD8D9"/>
<rect opacity="0.4" x="707.61" y="7.32324" width="24.716" height="4.57704" fill="#DAD8D9"/>
<rect opacity="0.4" x="735.073" y="7.32324" width="24.716" height="4.57704" fill="#DAD8D9"/>
<rect opacity="0.4" x="1119.85" y="7.32324" width="24.716" height="4.57704" fill="#DAD8D9"/>
<rect opacity="0.4" x="1229.7" y="7.32324" width="24.716" height="4.57704" fill="#DAD8D9"/>
<rect opacity="0.4" x="1311.85" y="6.9624" width="24.716" height="4.57704" fill="#DAD8D9"/>
<rect opacity="0.4" x="844.922" y="7.32324" width="24.716" height="4.57704" fill="#DAD8D9"/>
<rect opacity="0.4" x="872.384" y="7.32324" width="24.716" height="4.57704" fill="#DAD8D9"/>
<rect opacity="0.5" x="955.073" y="36.6167" width="24.716" height="4.57704" fill="#767073"/>
<rect opacity="0.5" x="1229.7" y="36.6167" width="24.716" height="4.57704" fill="#767073"/>
<rect opacity="0.5" x="1311.85" y="36.2559" width="24.716" height="4.57704" fill="#767073"/>
<rect opacity="0.5" x="982.536" y="36.6167" width="24.716" height="4.57704" fill="#767073"/>
<rect opacity="0.5" x="1257.16" y="36.6167" width="24.716" height="4.57704" fill="#767073"/>
<rect opacity="0.5" x="1339.31" y="36.2559" width="24.716" height="4.57704" fill="#767073"/>
<rect opacity="0.5" x="1010" y="36.6167" width="24.716" height="4.57704" fill="#767073"/>
<rect opacity="0.5" x="680.148" y="36.6167" width="24.716" height="4.57704" fill="#767073"/>
<rect opacity="0.5" x="1037.46" y="36.6167" width="24.716" height="4.57704" fill="#767073"/>
<rect opacity="0.5" x="707.61" y="36.6167" width="24.716" height="4.57704" fill="#767073"/>
<rect opacity="0.5" x="1064.92" y="36.6167" width="24.716" height="4.57704" fill="#767073"/>
<rect opacity="0.5" x="735.073" y="36.6167" width="24.716" height="4.57704" fill="#767073"/>
<rect opacity="0.5" x="1092.38" y="36.6167" width="24.716" height="4.57704" fill="#767073"/>
<rect opacity="0.5" x="762.535" y="36.6167" width="24.716" height="4.57704" fill="#767073"/>
<rect opacity="0.5" x="1119.85" y="36.6167" width="24.716" height="4.57704" fill="#767073"/>
<rect opacity="0.5" x="789.997" y="36.6167" width="24.716" height="4.57704" fill="#767073"/>
<rect opacity="0.5" x="1147.31" y="36.6167" width="24.716" height="4.57704" fill="#767073"/>
<rect opacity="0.5" x="817.459" y="36.6167" width="24.716" height="4.57704" fill="#767073"/>
<rect opacity="0.5" x="1174.77" y="36.6167" width="24.716" height="4.57704" fill="#767073"/>
<rect opacity="0.5" x="844.922" y="36.6167" width="24.716" height="4.57704" fill="#767073"/>
<rect opacity="0.5" x="1202.23" y="36.6167" width="24.716" height="4.57704" fill="#767073"/>
<rect opacity="0.5" x="1284.38" y="36.2559" width="24.716" height="4.57704" fill="#767073"/>
<rect opacity="0.5" x="872.384" y="36.6167" width="24.716" height="4.57704" fill="#767073"/>
<rect opacity="0.8" x="955.073" y="58.5864" width="24.716" height="4.57704" fill="#1F1E1F"/>
<rect opacity="0.8" x="1229.7" y="58.5864" width="24.716" height="4.57704" fill="#1F1E1F"/>
<rect opacity="0.8" x="1311.85" y="58.2256" width="24.716" height="4.57704" fill="#1F1E1F"/>
<rect opacity="0.8" x="982.536" y="58.5864" width="24.716" height="4.57704" fill="#1F1E1F"/>
<rect opacity="0.8" x="1257.16" y="58.5864" width="24.716" height="4.57704" fill="#1F1E1F"/>
<rect opacity="0.8" x="1339.31" y="58.2256" width="24.716" height="4.57704" fill="#1F1E1F"/>
<rect opacity="0.8" x="1010" y="58.5864" width="24.716" height="4.57704" fill="#1F1E1F"/>
<rect opacity="0.8" x="680.148" y="58.5864" width="24.716" height="4.57704" fill="#1F1E1F"/>
<rect opacity="0.8" x="1037.46" y="58.5864" width="24.716" height="4.57704" fill="#1F1E1F"/>
<rect opacity="0.8" x="707.61" y="58.5864" width="24.716" height="4.57704" fill="#1F1E1F"/>
<rect opacity="0.8" x="1064.92" y="58.5864" width="24.716" height="4.57704" fill="#1F1E1F"/>
<rect opacity="0.8" x="735.073" y="58.5864" width="24.716" height="4.57704" fill="#1F1E1F"/>
<rect opacity="0.8" x="1092.38" y="58.5864" width="24.716" height="4.57704" fill="#1F1E1F"/>
<rect opacity="0.8" x="762.535" y="58.5864" width="24.716" height="4.57704" fill="#1F1E1F"/>
<rect opacity="0.8" x="1119.85" y="58.5864" width="24.716" height="4.57704" fill="#1F1E1F"/>
<rect opacity="0.8" x="789.997" y="58.5864" width="24.716" height="4.57704" fill="#1F1E1F"/>
<rect opacity="0.8" x="1147.31" y="58.5864" width="24.716" height="4.57704" fill="#1F1E1F"/>
<rect opacity="0.8" x="817.459" y="58.5864" width="24.716" height="4.57704" fill="#1F1E1F"/>
<rect opacity="0.8" x="1174.77" y="58.5864" width="24.716" height="4.57704" fill="#1F1E1F"/>
<rect opacity="0.8" x="844.922" y="58.5864" width="24.716" height="4.57704" fill="#1F1E1F"/>
<rect opacity="0.8" x="1202.23" y="58.5864" width="24.716" height="4.57704" fill="#1F1E1F"/>
<rect opacity="0.8" x="1284.38" y="58.2256" width="24.716" height="4.57704" fill="#1F1E1F"/>
<rect opacity="0.8" x="872.384" y="58.5864" width="24.716" height="4.57704" fill="#1F1E1F"/>
<rect opacity="0.4" x="955.073" y="14.6465" width="24.716" height="4.57704" fill="#CDCBCC"/>
<rect opacity="0.4" x="1229.7" y="14.6465" width="24.716" height="4.57704" fill="#CDCBCC"/>
<rect opacity="0.4" x="1311.85" y="14.2856" width="24.716" height="4.57704" fill="#CDCBCC"/>
<rect opacity="0.4" x="1010" y="14.6465" width="24.716" height="4.57704" fill="#CDCBCC"/>
<rect opacity="0.4" x="680.148" y="14.6465" width="24.716" height="4.57704" fill="#CDCBCC"/>
<rect opacity="0.4" x="1037.46" y="14.6465" width="24.716" height="4.57704" fill="#CDCBCC"/>
<rect opacity="0.4" x="707.61" y="14.6465" width="24.716" height="4.57704" fill="#CDCBCC"/>
<rect opacity="0.4" x="735.073" y="14.6465" width="24.716" height="4.57704" fill="#CDCBCC"/>
<rect opacity="0.4" x="1119.85" y="14.6465" width="24.716" height="4.57704" fill="#CDCBCC"/>
<rect opacity="0.4" x="1147.31" y="14.6465" width="24.716" height="4.57704" fill="#CDCBCC"/>
<rect opacity="0.4" x="844.922" y="14.6465" width="24.716" height="4.57704" fill="#CDCBCC"/>
<rect opacity="0.4" x="1202.23" y="14.6465" width="24.716" height="4.57704" fill="#CDCBCC"/>
<rect opacity="0.4" x="1284.38" y="14.2856" width="24.716" height="4.57704" fill="#CDCBCC"/>
<rect opacity="0.4" x="872.384" y="14.6465" width="24.716" height="4.57704" fill="#CDCBCC"/>
<rect opacity="0.5" x="955.073" y="43.9395" width="24.716" height="4.57704" fill="#545052"/>
<rect opacity="0.5" x="1229.7" y="43.9395" width="24.716" height="4.57704" fill="#545052"/>
<rect opacity="0.5" x="1311.85" y="43.5786" width="24.716" height="4.57704" fill="#545052"/>
<rect opacity="0.5" x="982.536" y="43.9395" width="24.716" height="4.57704" fill="#545052"/>
<rect opacity="0.5" x="1257.16" y="43.9395" width="24.716" height="4.57704" fill="#545052"/>
<rect opacity="0.5" x="1339.31" y="43.5786" width="24.716" height="4.57704" fill="#545052"/>
<rect opacity="0.5" x="1010" y="43.9395" width="24.716" height="4.57704" fill="#545052"/>
<rect opacity="0.5" x="680.148" y="43.9395" width="24.716" height="4.57704" fill="#545052"/>
<rect opacity="0.5" x="1037.46" y="43.9395" width="24.716" height="4.57704" fill="#545052"/>
<rect opacity="0.5" x="707.61" y="43.9395" width="24.716" height="4.57704" fill="#545052"/>
<rect opacity="0.5" x="1064.92" y="43.9395" width="24.716" height="4.57704" fill="#545052"/>
<rect opacity="0.5" x="735.073" y="43.9395" width="24.716" height="4.57704" fill="#545052"/>
<rect opacity="0.5" x="1092.38" y="43.9395" width="24.716" height="4.57704" fill="#545052"/>
<rect opacity="0.5" x="762.535" y="43.9395" width="24.716" height="4.57704" fill="#545052"/>
<rect opacity="0.5" x="1119.85" y="43.9395" width="24.716" height="4.57704" fill="#545052"/>
<rect opacity="0.5" x="789.997" y="43.9395" width="24.716" height="4.57704" fill="#545052"/>
<rect opacity="0.5" x="1147.31" y="43.9395" width="24.716" height="4.57704" fill="#545052"/>
<rect opacity="0.5" x="817.459" y="43.9395" width="24.716" height="4.57704" fill="#545052"/>
<rect opacity="0.5" x="1174.77" y="43.9395" width="24.716" height="4.57704" fill="#545052"/>
<rect opacity="0.5" x="844.922" y="43.9395" width="24.716" height="4.57704" fill="#545052"/>
<rect opacity="0.5" x="1202.23" y="43.9395" width="24.716" height="4.57704" fill="#545052"/>
<rect opacity="0.5" x="1284.38" y="43.5786" width="24.716" height="4.57704" fill="#545052"/>
<rect opacity="0.5" x="872.384" y="43.9395" width="24.716" height="4.57704" fill="#545052"/>
<rect opacity="0.4" x="1010" width="24.716" height="4.57704" fill="#E6E5E6"/>
<rect opacity="0.4" x="707.61" width="24.716" height="4.57704" fill="#E6E5E6"/>
<rect opacity="0.4" x="735.073" width="24.716" height="4.57704" fill="#E6E5E6"/>
<rect opacity="0.4" x="872.384" width="24.716" height="4.57704" fill="#E6E5E6"/>
<rect opacity="0.4" x="955.073" y="29.293" width="24.716" height="4.57704" fill="#888285"/>
<rect opacity="0.4" x="1229.7" y="29.293" width="24.716" height="4.57704" fill="#888285"/>
<rect opacity="0.4" x="1311.85" y="28.9321" width="24.716" height="4.57704" fill="#888285"/>
<rect opacity="0.4" x="982.536" y="29.293" width="24.716" height="4.57704" fill="#888285"/>
<rect opacity="0.4" x="1257.16" y="29.293" width="24.716" height="4.57704" fill="#888285"/>
<rect opacity="0.4" x="1339.31" y="28.9321" width="24.716" height="4.57704" fill="#888285"/>
<rect opacity="0.4" x="1010" y="29.293" width="24.716" height="4.57704" fill="#888285"/>
<rect opacity="0.4" x="680.148" y="29.293" width="24.716" height="4.57704" fill="#888285"/>
<rect opacity="0.4" x="1037.46" y="29.293" width="24.716" height="4.57704" fill="#888285"/>
<rect opacity="0.4" x="707.61" y="29.293" width="24.716" height="4.57704" fill="#888285"/>
<rect opacity="0.4" x="1064.92" y="29.293" width="24.716" height="4.57704" fill="#888285"/>
<rect opacity="0.4" x="735.073" y="29.293" width="24.716" height="4.57704" fill="#888285"/>
<rect opacity="0.4" x="1092.38" y="29.293" width="24.716" height="4.57704" fill="#888285"/>
<rect opacity="0.4" x="1119.85" y="29.293" width="24.716" height="4.57704" fill="#888285"/>
<rect opacity="0.4" x="789.997" y="29.293" width="24.716" height="4.57704" fill="#888285"/>
<rect opacity="0.4" x="1147.31" y="29.293" width="24.716" height="4.57704" fill="#888285"/>
<rect opacity="0.4" x="817.459" y="29.293" width="24.716" height="4.57704" fill="#888285"/>
<rect opacity="0.4" x="1174.77" y="29.293" width="24.716" height="4.57704" fill="#888285"/>
<rect opacity="0.4" x="844.922" y="29.293" width="24.716" height="4.57704" fill="#888285"/>
<rect opacity="0.4" x="1202.23" y="29.293" width="24.716" height="4.57704" fill="#888285"/>
<rect opacity="0.4" x="1284.38" y="28.9321" width="24.716" height="4.57704" fill="#888285"/>
<rect opacity="0.4" x="872.384" y="29.293" width="24.716" height="4.57704" fill="#888285"/>
<rect x="1366.77" y="65.7583" width="73.2327" height="4.57704" fill="#121112"/>
<rect opacity="0.4" x="1366.77" y="21.8188" width="73.2327" height="4.57704" fill="#A8A4A6"/>
<rect opacity="0.8" x="1366.77" y="51.1118" width="73.2327" height="4.57704" fill="#413E40"/>
<rect opacity="0.5" x="1366.77" y="36.4653" width="73.2327" height="4.57704" fill="#767073"/>
<rect opacity="0.8" x="1366.77" y="58.4351" width="73.2327" height="4.57704" fill="#1F1E1F"/>
<rect opacity="0.5" x="1366.77" y="43.7886" width="73.2327" height="4.57704" fill="#545052"/>
<rect opacity="0.4" x="1366.77" y="29.1421" width="73.2327" height="4.57704" fill="#888285"/>
<rect y="72" width="1440" height="90" fill="#121112"/>
</svg>
