<svg width="27" height="19" viewBox="0 0 27 19" fill="none" xmlns="http://www.w3.org/2000/svg">
<path d="M24.375 0H1.875C1.37772 0 0.900805 0.197544 0.549175 0.549175C0.197544 0.900806 0 1.37772 0 1.875V16.875C0 17.3723 0.197544 17.8492 0.549175 18.2008C0.900805 18.5525 1.37772 18.75 1.875 18.75H24.375C24.8723 18.75 25.3492 18.5525 25.7008 18.2008C26.0525 17.8492 26.25 17.3723 26.25 16.875V1.875C26.25 1.37772 26.0525 0.900806 25.7008 0.549175C25.3492 0.197544 24.8723 0 24.375 0ZM22.3125 1.875L13.125 8.23125L3.9375 1.875H22.3125ZM1.875 16.875V2.72813L12.5906 10.1438C12.7476 10.2526 12.934 10.311 13.125 10.311C13.316 10.311 13.5024 10.2526 13.6594 10.1438L24.375 2.72813V16.875H1.875Z" fill="#1F1E1F"/>
</svg>
