<svg width="1441" height="209" viewBox="0 0 1441 209" fill="none" xmlns="http://www.w3.org/2000/svg">
<g id="Group 115">
<path id="Rectangle 872" d="M0 181H1441V209H0V195V181Z" fill="#121112"/>
<g id="Group 118">
<rect id="Rectangle 873" y="126.352" width="163.4" height="56.6484" fill="#121112"/>
<rect id="Rectangle 875" x="169.714" y="126.764" width="47.4768" height="55.8812" fill="#121112"/>
<rect id="Rectangle 876" x="222.466" y="126.764" width="47.4768" height="55.8812" fill="#121112"/>
<rect id="Rectangle 877" x="275.218" y="126.764" width="47.4768" height="55.8812" fill="#121112"/>
<rect id="Rectangle 878" x="327.97" y="126.764" width="47.4768" height="55.8812" fill="#121112"/>
<rect id="Rectangle 879" x="380.722" y="126.764" width="47.4768" height="55.8812" fill="#121112"/>
<rect id="Rectangle 880" x="433.475" y="126.764" width="47.4768" height="55.8812" fill="#121112"/>
<rect id="Rectangle 881" x="486.227" y="126.764" width="47.4768" height="55.8812" fill="#121112"/>
<rect id="Rectangle 882" x="538.979" y="126.764" width="47.4768" height="55.8812" fill="#121112"/>
<rect id="Rectangle 883" x="591.73" y="126.764" width="47.4768" height="55.8812" fill="#121112"/>
<rect id="Rectangle 884" x="644.482" y="126.764" width="47.4768" height="55.8812" fill="#121112"/>
<rect id="Rectangle 874" x="697.172" y="126.352" width="743.716" height="56.6484" fill="#121112"/>
</g>
<path id="F" d="M132.555 169.806V139.252H153.023V146.595H141.249V151.069H151.166V157.99H141.249V169.806H132.555Z" fill="#F0EFF0"/>
<path id="u" d="M208.055 139.252V155.331C208.055 159.973 207.169 163.181 205.48 165.417C203.202 168.456 199.024 170.27 193.917 170.27C188.895 170.27 184.506 168.54 182.185 165.291C180.582 163.054 179.78 159.804 179.78 155.331V139.252H188.473V154.825C188.473 157.779 188.811 159.509 189.655 160.691C190.499 161.872 191.976 162.716 194.086 162.716C195.985 162.716 197.378 162.041 198.264 160.944C199.235 159.762 199.699 157.821 199.699 154.825V139.252H208.055Z" fill="#F0EFF0"/>
<path id="u_2" d="M682.822 139.252V155.331C682.822 159.973 681.936 163.181 680.248 165.417C677.969 168.456 673.791 170.27 668.684 170.27C663.662 170.27 659.273 168.54 656.952 165.291C655.349 163.054 654.547 159.804 654.547 155.331V139.252H663.24V154.825C663.24 157.779 663.578 159.509 664.422 160.691C665.266 161.872 666.743 162.716 668.853 162.716C670.752 162.716 672.145 162.041 673.031 160.944C674.002 159.762 674.466 157.821 674.466 154.825V139.252H682.822Z" fill="#F0EFF0"/>
<path id="E" d="M236.301 169.806V139.252H256.221V146.595H244.995V150.478H254.49V157.399H244.995V162.463H256.727V169.806H236.301Z" fill="#F0EFF0"/>
<path id="E_2" d="M394.557 169.806V139.252H414.476V146.595H403.251V150.478H412.746V157.399H403.251V162.463H414.983V169.806H394.557Z" fill="#F0EFF0"/>
<path id="A" d="M494.224 169.806L506.589 139.252H515.156L527.521 169.806H518.067L515.915 163.56H505.449L503.213 169.806H494.224ZM510.809 148.537H510.724C510.134 150.478 509.543 152.25 508.825 154.234L507.77 157.146H513.678L512.666 154.234C511.948 152.166 511.4 150.436 510.809 148.537Z" fill="#F0EFF0"/>
<path id="A_2" d="M706.99 169.806L719.355 139.252H727.922L740.287 169.806H730.834L728.681 163.56H718.215L715.979 169.806H706.99ZM723.575 148.537H723.49C722.9 150.478 722.309 152.25 721.591 154.234L720.536 157.146H726.445L725.432 154.234C724.714 152.166 724.166 150.436 723.575 148.537Z" fill="#F0EFF0"/>
<path id="C" d="M575.996 159.889V168.456C573.295 169.722 570.046 170.27 567.134 170.27C556.879 170.27 550 163.434 550 154.571C550 145.54 557.132 138.788 567.134 138.788C570.172 138.788 573.126 139.421 575.574 140.518V149.043C573.337 147.65 570.299 146.511 567.303 146.511C562.154 146.511 558.693 149.845 558.693 154.487C558.693 158.918 561.901 162.547 567.471 162.547C570.468 162.547 573.422 161.492 575.996 159.889Z" fill="#F0EFF0"/>
<path id="R" d="M285.536 169.806V139.252H296.213C299.927 139.252 302.67 139.716 304.78 140.771C307.734 142.206 309.718 144.781 309.718 148.748C309.718 152.504 307.903 155.373 304.105 156.977L312.208 169.806H302.375L295.58 158.201H294.23V169.806H285.536ZM294.23 152.25H296.382C297.986 152.25 299.125 152.039 299.8 151.617C300.602 151.153 301.024 150.351 301.024 149.212C301.024 147.904 300.434 147.102 299.547 146.68C298.83 146.342 297.817 146.173 295.834 146.173H294.23V152.25Z" fill="#F0EFF0"/>
<path id="T" d="M347.601 169.806V146.595H337.895V139.252H366.001V146.595H356.295V169.806H347.601Z" fill="#F0EFF0"/>
<path id="T_2" d="M611.361 169.806V146.595H601.655V139.252H629.761V146.595H620.054V169.806H611.361Z" fill="#F0EFF0"/>
<g id="Group 56">
<ellipse id="Ellipse 8" cx="457.359" cy="154.1" rx="17.7305" ry="18.5014" fill="white"/>
<path id="Polygon 4" d="M470.196 154.1L450.891 165.942L450.891 142.257L470.196 154.1Z" fill="#121112"/>
</g>
<g id="Group 108">
<rect id="Rectangle 1208" x="169.714" y="70.3359" width="47.4768" height="8.792" fill="#888285"/>
<rect id="Rectangle 1209" x="222.466" y="70.3359" width="47.4768" height="8.792" fill="#888285"/>
<rect id="Rectangle 1210" x="275.219" y="70.3359" width="47.4768" height="8.792" fill="#888285"/>
<rect id="Rectangle 1211" x="327.971" y="70.3359" width="47.4768" height="8.792" fill="#888285"/>
<rect id="Rectangle 1212" x="960.704" y="70.3359" width="47.4768" height="8.792" fill="#888285"/>
<rect id="Rectangle 1213" x="380.723" y="70.3359" width="47.4768" height="8.792" fill="#888285"/>
<rect id="Rectangle 1214" x="1013.46" y="70.3359" width="47.4768" height="8.792" fill="#888285"/>
<rect id="Rectangle 1215" x="1225.11" y="70.3359" width="47.4768" height="8.792" fill="#888285"/>
<rect id="Rectangle 1216" x="433.475" y="70.3359" width="47.4768" height="8.792" fill="#888285"/>
<rect id="Rectangle 1217" x="1066.21" y="70.3359" width="47.4768" height="8.792" fill="#888285"/>
<rect id="Rectangle 1218" x="697.284" y="70.3359" width="47.4768" height="8.792" fill="#888285"/>
<rect id="Rectangle 1219" x="486.227" y="70.3359" width="47.4768" height="8.792" fill="#888285"/>
<rect id="Rectangle 1220" x="750.035" y="70.3359" width="47.4768" height="8.792" fill="#888285"/>
<rect id="Rectangle 1221" x="1119.15" y="70.3359" width="47.4768" height="8.792" fill="#888285"/>
<rect id="Rectangle 1222" x="591.73" y="70.3359" width="47.4768" height="8.792" fill="#888285"/>
<rect id="Rectangle 1223" x="855.539" y="70.3359" width="47.4768" height="8.792" fill="#888285"/>
<rect id="Rectangle 1224" x="644.482" y="70.3359" width="47.4768" height="8.792" fill="#888285"/>
<rect id="Rectangle 1225" x="908.292" y="70.3359" width="47.4768" height="8.792" fill="#888285"/>
<rect id="Rectangle 1226" x="1277.6" y="70.3115" width="163.4" height="8.91271" fill="#888285"/>
<rect id="Rectangle 1227" y="70.3359" width="163.4" height="8.792" fill="#888285"/>
</g>
<g id="Group 110">
<rect id="Rectangle 1250" x="275.219" y="42.2017" width="47.4768" height="8.792" fill="#CDCBCC"/>
<rect id="Rectangle 1251" x="327.971" y="42.2017" width="47.4768" height="8.792" fill="#CDCBCC"/>
<rect id="Rectangle 1252" x="960.704" y="42.2017" width="47.4768" height="8.792" fill="#CDCBCC"/>
<rect id="Rectangle 1253" x="380.723" y="42.2017" width="47.4768" height="8.792" fill="#CDCBCC"/>
<rect id="Rectangle 1254" x="1013.46" y="42.2017" width="47.4768" height="8.792" fill="#CDCBCC"/>
<rect id="Rectangle 1178" x="1225.11" y="42.2017" width="47.4768" height="8.792" fill="#CDCBCC"/>
<rect id="Rectangle 1255" x="486.227" y="42.2017" width="47.4768" height="8.792" fill="#CDCBCC"/>
<rect id="Rectangle 1256" x="750.035" y="42.2017" width="47.4768" height="8.792" fill="#CDCBCC"/>
<rect id="Rectangle 1257" x="1119.15" y="42.2017" width="47.4768" height="8.792" fill="#CDCBCC"/>
<rect id="Rectangle 1258" x="591.73" y="42.2017" width="47.4768" height="8.792" fill="#CDCBCC"/>
<rect id="Rectangle 1259" x="855.539" y="42.2017" width="47.4768" height="8.792" fill="#CDCBCC"/>
<rect id="Rectangle 1260" x="644.482" y="42.2017" width="47.4768" height="8.792" fill="#CDCBCC"/>
<rect id="Rectangle 1261" x="908.292" y="42.2017" width="47.4768" height="8.792" fill="#CDCBCC"/>
<rect id="Rectangle 1262" y="42.2017" width="163.4" height="8.792" fill="#CDCBCC"/>
</g>
<g id="Group 106">
<rect id="Rectangle 1263" x="169.714" y="98.4702" width="47.4768" height="8.792" fill="#545052"/>
<rect id="Rectangle 1264" x="222.466" y="98.4702" width="47.4768" height="8.792" fill="#545052"/>
<rect id="Rectangle 1265" x="275.219" y="98.4702" width="47.4768" height="8.792" fill="#545052"/>
<rect id="Rectangle 1266" x="327.971" y="98.4702" width="47.4768" height="8.792" fill="#545052"/>
<rect id="Rectangle 1267" x="960.704" y="98.4702" width="47.4768" height="8.792" fill="#545052"/>
<rect id="Rectangle 1268" x="380.723" y="98.4702" width="47.4768" height="8.792" fill="#545052"/>
<rect id="Rectangle 1269" x="1013.46" y="98.4702" width="47.4768" height="8.792" fill="#545052"/>
<rect id="Rectangle 1179" x="1225.11" y="98.4702" width="47.4768" height="8.792" fill="#545052"/>
<rect id="Rectangle 1270" x="433.475" y="98.4702" width="47.4768" height="8.792" fill="#545052"/>
<rect id="Rectangle 1271" x="1066.21" y="98.4702" width="47.4768" height="8.792" fill="#545052"/>
<rect id="Rectangle 1272" x="697.284" y="98.4702" width="47.4768" height="8.792" fill="#545052"/>
<rect id="Rectangle 1273" x="486.227" y="98.4702" width="47.4768" height="8.792" fill="#545052"/>
<rect id="Rectangle 1274" x="750.035" y="98.4702" width="47.4768" height="8.792" fill="#545052"/>
<rect id="Rectangle 1275" x="1119.15" y="98.4702" width="47.4768" height="8.792" fill="#545052"/>
<rect id="Rectangle 1276" x="538.979" y="98.4702" width="47.4768" height="8.792" fill="#545052"/>
<rect id="Rectangle 1277" x="802.787" y="98.4702" width="47.4768" height="8.792" fill="#545052"/>
<rect id="Rectangle 1278" x="1171.9" y="98.4702" width="47.4768" height="8.792" fill="#545052"/>
<rect id="Rectangle 1279" x="591.73" y="98.4702" width="47.4768" height="8.792" fill="#545052"/>
<rect id="Rectangle 1280" x="855.539" y="98.4702" width="47.4768" height="8.792" fill="#545052"/>
<rect id="Rectangle 1281" x="644.482" y="98.4702" width="47.4768" height="8.792" fill="#545052"/>
<rect id="Rectangle 1282" x="908.292" y="98.4702" width="47.4768" height="8.792" fill="#545052"/>
<rect id="Rectangle 1283" x="1277.6" y="98.0396" width="163.4" height="8.91271" fill="#545052"/>
<rect id="Rectangle 1284" y="98.4702" width="163.4" height="8.792" fill="#545052"/>
</g>
<g id="Group 112">
<rect id="Rectangle 1285" x="275.219" y="14.0674" width="47.4768" height="8.792" fill="#E6E5E6"/>
<rect id="Rectangle 1286" x="327.971" y="14.0674" width="47.4768" height="8.792" fill="#E6E5E6"/>
<rect id="Rectangle 1287" x="960.704" y="14.0674" width="47.4768" height="8.792" fill="#E6E5E6"/>
<rect id="Rectangle 1288" x="644.482" y="14.0674" width="47.4768" height="8.792" fill="#E6E5E6"/>
<rect id="Rectangle 1289" x="908.292" y="14.0674" width="47.4768" height="8.792" fill="#E6E5E6"/>
</g>
<g id="Group 109">
<rect id="Rectangle 1312" x="169.714" y="56.269" width="47.4768" height="8.792" fill="#A8A4A6"/>
<rect id="Rectangle 1313" x="275.219" y="56.269" width="47.4768" height="8.792" fill="#A8A4A6"/>
<rect id="Rectangle 1314" x="327.971" y="56.269" width="47.4768" height="8.792" fill="#A8A4A6"/>
<rect id="Rectangle 1315" x="960.704" y="56.269" width="47.4768" height="8.792" fill="#A8A4A6"/>
<rect id="Rectangle 1316" x="380.723" y="56.269" width="47.4768" height="8.792" fill="#A8A4A6"/>
<rect id="Rectangle 1317" x="1013.46" y="56.269" width="47.4768" height="8.792" fill="#A8A4A6"/>
<rect id="Rectangle 1181" x="1225.11" y="56.269" width="47.4768" height="8.792" fill="#A8A4A6"/>
<rect id="Rectangle 1318" x="486.227" y="56.269" width="47.4768" height="8.792" fill="#A8A4A6"/>
<rect id="Rectangle 1319" x="750.035" y="56.269" width="47.4768" height="8.792" fill="#A8A4A6"/>
<rect id="Rectangle 1320" x="1119.15" y="56.269" width="47.4768" height="8.792" fill="#A8A4A6"/>
<rect id="Rectangle 1321" x="591.73" y="56.269" width="47.4768" height="8.792" fill="#A8A4A6"/>
<rect id="Rectangle 1322" x="855.539" y="56.269" width="47.4768" height="8.792" fill="#A8A4A6"/>
<rect id="Rectangle 1323" x="644.482" y="56.269" width="47.4768" height="8.792" fill="#A8A4A6"/>
<rect id="Rectangle 1324" x="908.292" y="56.269" width="47.4768" height="8.792" fill="#A8A4A6"/>
<rect id="Rectangle 1325" y="56.269" width="163.4" height="8.792" fill="#A8A4A6"/>
</g>
<g id="Group 105">
<rect id="Rectangle 1326" x="169.714" y="112.538" width="47.4768" height="8.792" fill="#1F1E1F"/>
<rect id="Rectangle 1327" x="222.466" y="112.538" width="47.4768" height="8.792" fill="#1F1E1F"/>
<rect id="Rectangle 1328" x="275.219" y="112.538" width="47.4768" height="8.792" fill="#1F1E1F"/>
<rect id="Rectangle 1329" x="327.971" y="112.538" width="47.4768" height="8.792" fill="#1F1E1F"/>
<rect id="Rectangle 1330" x="960.704" y="112.538" width="47.4768" height="8.792" fill="#1F1E1F"/>
<rect id="Rectangle 1331" x="380.723" y="112.538" width="47.4768" height="8.792" fill="#1F1E1F"/>
<rect id="Rectangle 1332" x="1013.46" y="112.538" width="47.4768" height="8.792" fill="#1F1E1F"/>
<rect id="Rectangle 1182" x="1225.11" y="112.538" width="47.4768" height="8.792" fill="#1F1E1F"/>
<rect id="Rectangle 1333" x="433.475" y="112.538" width="47.4768" height="8.792" fill="#1F1E1F"/>
<rect id="Rectangle 1334" x="1066.21" y="112.538" width="47.4768" height="8.792" fill="#1F1E1F"/>
<rect id="Rectangle 1335" x="697.284" y="112.538" width="47.4768" height="8.792" fill="#1F1E1F"/>
<rect id="Rectangle 1336" x="486.227" y="112.538" width="47.4768" height="8.792" fill="#1F1E1F"/>
<rect id="Rectangle 1337" x="750.035" y="112.538" width="47.4768" height="8.792" fill="#1F1E1F"/>
<rect id="Rectangle 1338" x="1119.15" y="112.538" width="47.4768" height="8.792" fill="#1F1E1F"/>
<rect id="Rectangle 1339" x="538.979" y="112.538" width="47.4768" height="8.792" fill="#1F1E1F"/>
<rect id="Rectangle 1340" x="802.787" y="112.538" width="47.4768" height="8.792" fill="#1F1E1F"/>
<rect id="Rectangle 1341" x="1171.9" y="112.538" width="47.4768" height="8.792" fill="#1F1E1F"/>
<rect id="Rectangle 1342" x="591.73" y="112.538" width="47.4768" height="8.792" fill="#1F1E1F"/>
<rect id="Rectangle 1343" x="855.539" y="112.538" width="47.4768" height="8.792" fill="#1F1E1F"/>
<rect id="Rectangle 1344" x="644.482" y="112.538" width="47.4768" height="8.792" fill="#1F1E1F"/>
<rect id="Rectangle 1345" x="908.292" y="112.538" width="47.4768" height="8.792" fill="#1F1E1F"/>
<rect id="Rectangle 1346" x="1277.6" y="112.894" width="163.4" height="8.91271" fill="#1F1E1F"/>
<rect id="Rectangle 1347" y="112.538" width="163.4" height="8.792" fill="#1F1E1F"/>
</g>
<g id="Group 111">
<rect id="Rectangle 1348" x="275.219" y="28.1343" width="47.4768" height="8.792" fill="#DAD8D9"/>
<rect id="Rectangle 1349" x="327.971" y="28.1343" width="47.4768" height="8.792" fill="#DAD8D9"/>
<rect id="Rectangle 1350" x="960.704" y="28.1343" width="47.4768" height="8.792" fill="#DAD8D9"/>
<rect id="Rectangle 1351" x="380.723" y="28.1343" width="47.4768" height="8.792" fill="#DAD8D9"/>
<rect id="Rectangle 1352" x="1013.46" y="28.1343" width="47.4768" height="8.792" fill="#DAD8D9"/>
<rect id="Rectangle 1183" x="1225.11" y="28.1343" width="47.4768" height="8.792" fill="#DAD8D9"/>
<rect id="Rectangle 1353" x="591.73" y="28.1343" width="47.4768" height="8.792" fill="#DAD8D9"/>
<rect id="Rectangle 1354" x="855.539" y="28.1343" width="47.4768" height="8.792" fill="#DAD8D9"/>
<rect id="Rectangle 1355" x="644.482" y="28.1343" width="47.4768" height="8.792" fill="#DAD8D9"/>
<rect id="Rectangle 1356" x="908.292" y="28.1343" width="47.4768" height="8.792" fill="#DAD8D9"/>
</g>
<g id="Group 107">
<rect id="Rectangle 1357" x="169.714" y="84.4033" width="47.4768" height="8.792" fill="#888285"/>
<rect id="Rectangle 1358" x="222.466" y="84.4033" width="47.4768" height="8.792" fill="#888285"/>
<rect id="Rectangle 1359" x="275.219" y="84.4033" width="47.4768" height="8.792" fill="#888285"/>
<rect id="Rectangle 1360" x="327.971" y="84.4033" width="47.4768" height="8.792" fill="#888285"/>
<rect id="Rectangle 1361" x="960.704" y="84.4033" width="47.4768" height="8.792" fill="#888285"/>
<rect id="Rectangle 1362" x="380.723" y="84.4033" width="47.4768" height="8.792" fill="#888285"/>
<rect id="Rectangle 1363" x="1013.46" y="84.4033" width="47.4768" height="8.792" fill="#888285"/>
<rect id="Rectangle 1184" x="1225.11" y="84.4033" width="47.4768" height="8.792" fill="#888285"/>
<rect id="Rectangle 1364" x="433.475" y="84.4033" width="47.4768" height="8.792" fill="#888285"/>
<rect id="Rectangle 1365" x="1066.21" y="84.4033" width="47.4768" height="8.792" fill="#888285"/>
<rect id="Rectangle 1366" x="697.284" y="84.4033" width="47.4768" height="8.792" fill="#888285"/>
<rect id="Rectangle 1367" x="486.227" y="84.4033" width="47.4768" height="8.792" fill="#888285"/>
<rect id="Rectangle 1368" x="750.035" y="84.4033" width="47.4768" height="8.792" fill="#888285"/>
<rect id="Rectangle 1369" x="1119.15" y="84.4033" width="47.4768" height="8.792" fill="#888285"/>
<rect id="Rectangle 1370" x="538.979" y="84.4033" width="47.4768" height="8.792" fill="#888285"/>
<rect id="Rectangle 1371" x="802.787" y="84.4033" width="47.4768" height="8.792" fill="#888285"/>
<rect id="Rectangle 1372" x="1171.9" y="84.4033" width="47.4768" height="8.792" fill="#888285"/>
<rect id="Rectangle 1373" x="591.73" y="84.4033" width="47.4768" height="8.792" fill="#888285"/>
<rect id="Rectangle 1374" x="855.539" y="84.4033" width="47.4768" height="8.792" fill="#888285"/>
<rect id="Rectangle 1375" x="644.482" y="84.4033" width="47.4768" height="8.792" fill="#888285"/>
<rect id="Rectangle 1376" x="908.292" y="84.4033" width="47.4768" height="8.792" fill="#888285"/>
<rect id="Rectangle 1377" x="1277.6" y="84.1758" width="163.4" height="8.91271" fill="#888285"/>
<rect id="Rectangle 1378" y="84.4033" width="163.4" height="8.792" fill="#888285"/>
</g>
<g id="Group 113">
<rect id="Rectangle 1379" x="327.971" width="47.4768" height="8.792" fill="#F0EFF0"/>
<rect id="Rectangle 1380" x="960.704" width="47.4768" height="8.792" fill="#F0EFF0"/>
</g>
</g>
</svg>
