<svg width="1440" height="209" viewBox="0 0 1440 209" fill="none" xmlns="http://www.w3.org/2000/svg">
<path d="M0 181H1440V209H0V195V181Z" fill="#121112"/>
<rect y="126" width="162" height="57" fill="#121112"/>
<rect x="168.714" y="126.764" width="47.4768" height="55.8812" fill="#121112"/>
<rect x="221.466" y="126.764" width="47.4768" height="55.8812" fill="#121112"/>
<rect x="274.218" y="126.764" width="47.4768" height="55.8812" fill="#121112"/>
<rect x="326.97" y="126.764" width="47.4768" height="55.8812" fill="#121112"/>
<rect x="379.722" y="126.764" width="47.4768" height="55.8812" fill="#121112"/>
<rect x="432.475" y="126.764" width="47.4768" height="55.8812" fill="#121112"/>
<rect x="485.227" y="126.764" width="47.4768" height="55.8812" fill="#121112"/>
<rect x="537.979" y="126.764" width="47.4768" height="55.8812" fill="#121112"/>
<rect x="590.73" y="126.764" width="47.4768" height="55.8812" fill="#121112"/>
<rect x="643.482" y="126.764" width="47.4768" height="55.8812" fill="#121112"/>
<rect x="696.172" y="126.352" width="743.716" height="56.6484" fill="#121112"/>
<path d="M131.555 169.806V139.252H152.023V146.595H140.249V151.069H150.166V157.99H140.249V169.806H131.555Z" fill="#F0EFF0"/>
<path d="M207.055 139.252V155.331C207.055 159.973 206.169 163.181 204.48 165.417C202.202 168.456 198.024 170.27 192.917 170.27C187.895 170.27 183.506 168.54 181.185 165.291C179.582 163.054 178.78 159.804 178.78 155.331V139.252H187.473V154.825C187.473 157.779 187.811 159.509 188.655 160.691C189.499 161.872 190.976 162.716 193.086 162.716C194.985 162.716 196.378 162.041 197.264 160.944C198.235 159.762 198.699 157.821 198.699 154.825V139.252H207.055Z" fill="#F0EFF0"/>
<path d="M681.822 139.252V155.331C681.822 159.973 680.936 163.181 679.248 165.417C676.969 168.456 672.791 170.27 667.684 170.27C662.662 170.27 658.273 168.54 655.952 165.291C654.349 163.054 653.547 159.804 653.547 155.331V139.252H662.24V154.825C662.24 157.779 662.578 159.509 663.422 160.691C664.266 161.872 665.743 162.716 667.853 162.716C669.752 162.716 671.145 162.041 672.031 160.944C673.002 159.762 673.466 157.821 673.466 154.825V139.252H681.822Z" fill="#F0EFF0"/>
<path d="M235.301 169.806V139.252H255.221V146.595H243.995V150.478H253.49V157.399H243.995V162.463H255.727V169.806H235.301Z" fill="#F0EFF0"/>
<path d="M393.557 169.806V139.252H413.476V146.595H402.251V150.478H411.746V157.399H402.251V162.463H413.983V169.806H393.557Z" fill="#F0EFF0"/>
<path d="M493.224 169.806L505.589 139.252H514.156L526.521 169.806H517.067L514.915 163.56H504.449L502.213 169.806H493.224ZM509.809 148.537H509.724C509.134 150.478 508.543 152.25 507.825 154.234L506.77 157.146H512.678L511.666 154.234C510.948 152.166 510.4 150.436 509.809 148.537Z" fill="#F0EFF0"/>
<path d="M705.99 169.806L718.355 139.252H726.922L739.287 169.806H729.834L727.681 163.56H717.215L714.979 169.806H705.99ZM722.575 148.537H722.49C721.9 150.478 721.309 152.25 720.591 154.234L719.536 157.146H725.445L724.432 154.234C723.714 152.166 723.166 150.436 722.575 148.537Z" fill="#F0EFF0"/>
<path d="M574.996 159.889V168.456C572.295 169.722 569.046 170.27 566.134 170.27C555.879 170.27 549 163.434 549 154.571C549 145.54 556.132 138.788 566.134 138.788C569.172 138.788 572.126 139.421 574.574 140.518V149.043C572.337 147.65 569.299 146.511 566.303 146.511C561.154 146.511 557.693 149.845 557.693 154.487C557.693 158.918 560.901 162.547 566.471 162.547C569.468 162.547 572.422 161.492 574.996 159.889Z" fill="#F0EFF0"/>
<path d="M284.536 169.806V139.252H295.213C298.927 139.252 301.67 139.716 303.78 140.771C306.734 142.206 308.718 144.781 308.718 148.748C308.718 152.504 306.903 155.373 303.105 156.977L311.208 169.806H301.375L294.58 158.201H293.23V169.806H284.536ZM293.23 152.25H295.382C296.986 152.25 298.125 152.039 298.8 151.617C299.602 151.153 300.024 150.351 300.024 149.212C300.024 147.904 299.434 147.102 298.547 146.68C297.83 146.342 296.817 146.173 294.834 146.173H293.23V152.25Z" fill="#F0EFF0"/>
<path d="M346.601 169.806V146.595H336.895V139.252H365.001V146.595H355.295V169.806H346.601Z" fill="#F0EFF0"/>
<path d="M610.361 169.806V146.595H600.655V139.252H628.761V146.595H619.054V169.806H610.361Z" fill="#F0EFF0"/>
<ellipse cx="456.359" cy="154.1" rx="17.7305" ry="18.5014" fill="white"/>
<path d="M469.196 154.1L449.891 165.942L449.891 142.257L469.196 154.1Z" fill="#121112"/>
<rect x="168.714" y="70.3359" width="47.4768" height="8.792" fill="#888285"/>
<rect x="221.466" y="70.3359" width="47.4768" height="8.792" fill="#888285"/>
<rect x="274.219" y="70.3359" width="47.4768" height="8.792" fill="#888285"/>
<rect x="326.971" y="70.3359" width="47.4768" height="8.792" fill="#888285"/>
<rect x="959.704" y="70.3359" width="47.4768" height="8.792" fill="#888285"/>
<rect x="379.723" y="70.3359" width="47.4768" height="8.792" fill="#888285"/>
<rect x="1012.46" y="70.3359" width="47.4768" height="8.792" fill="#888285"/>
<rect x="1224.11" y="70.3359" width="47.4768" height="8.792" fill="#888285"/>
<rect x="432.475" y="70.3359" width="47.4768" height="8.792" fill="#888285"/>
<rect x="1065.21" y="70.3359" width="47.4768" height="8.792" fill="#888285"/>
<rect x="696.284" y="70.3359" width="47.4768" height="8.792" fill="#888285"/>
<rect x="485.227" y="70.3359" width="47.4768" height="8.792" fill="#888285"/>
<rect x="749.035" y="70.3359" width="47.4768" height="8.792" fill="#888285"/>
<rect x="1118.15" y="70.3359" width="47.4768" height="8.792" fill="#888285"/>
<rect x="590.73" y="70.3359" width="47.4768" height="8.792" fill="#888285"/>
<rect x="854.539" y="70.3359" width="47.4768" height="8.792" fill="#888285"/>
<rect x="643.482" y="70.3359" width="47.4768" height="8.792" fill="#888285"/>
<rect x="907.292" y="70.3359" width="47.4768" height="8.792" fill="#888285"/>
<rect x="1276.6" y="70.3115" width="163.4" height="8.91271" fill="#888285"/>
<rect y="70" width="162" height="9" fill="#888285"/>
<rect x="274.219" y="42.2017" width="47.4768" height="8.792" fill="#CDCBCC"/>
<rect x="326.971" y="42.2017" width="47.4768" height="8.792" fill="#CDCBCC"/>
<rect x="959.704" y="42.2017" width="47.4768" height="8.792" fill="#CDCBCC"/>
<rect x="379.723" y="42.2017" width="47.4768" height="8.792" fill="#CDCBCC"/>
<rect x="1012.46" y="42.2017" width="47.4768" height="8.792" fill="#CDCBCC"/>
<rect x="1224.11" y="42.2017" width="47.4768" height="8.792" fill="#CDCBCC"/>
<rect x="485.227" y="42.2017" width="47.4768" height="8.792" fill="#CDCBCC"/>
<rect x="749.035" y="42.2017" width="47.4768" height="8.792" fill="#CDCBCC"/>
<rect x="1118.15" y="42.2017" width="47.4768" height="8.792" fill="#CDCBCC"/>
<rect x="590.73" y="42.2017" width="47.4768" height="8.792" fill="#CDCBCC"/>
<rect x="854.539" y="42.2017" width="47.4768" height="8.792" fill="#CDCBCC"/>
<rect x="643.482" y="42.2017" width="47.4768" height="8.792" fill="#CDCBCC"/>
<rect x="907.292" y="42.2017" width="47.4768" height="8.792" fill="#CDCBCC"/>
<rect y="42" width="162" height="9" fill="#CDCBCC"/>
<rect x="168.714" y="98.4702" width="47.4768" height="8.792" fill="#545052"/>
<rect x="221.466" y="98.4702" width="47.4768" height="8.792" fill="#545052"/>
<rect x="274.219" y="98.4702" width="47.4768" height="8.792" fill="#545052"/>
<rect x="326.971" y="98.4702" width="47.4768" height="8.792" fill="#545052"/>
<rect x="959.704" y="98.4702" width="47.4768" height="8.792" fill="#545052"/>
<rect x="379.723" y="98.4702" width="47.4768" height="8.792" fill="#545052"/>
<rect x="1012.46" y="98.4702" width="47.4768" height="8.792" fill="#545052"/>
<rect x="1224.11" y="98.4702" width="47.4768" height="8.792" fill="#545052"/>
<rect x="432.475" y="98.4702" width="47.4768" height="8.792" fill="#545052"/>
<rect x="1065.21" y="98.4702" width="47.4768" height="8.792" fill="#545052"/>
<rect x="696.284" y="98.4702" width="47.4768" height="8.792" fill="#545052"/>
<rect x="485.227" y="98.4702" width="47.4768" height="8.792" fill="#545052"/>
<rect x="749.035" y="98.4702" width="47.4768" height="8.792" fill="#545052"/>
<rect x="1118.15" y="98.4702" width="47.4768" height="8.792" fill="#545052"/>
<rect x="537.979" y="98.4702" width="47.4768" height="8.792" fill="#545052"/>
<rect x="801.787" y="98.4702" width="47.4768" height="8.792" fill="#545052"/>
<rect x="1170.9" y="98.4702" width="47.4768" height="8.792" fill="#545052"/>
<rect x="590.73" y="98.4702" width="47.4768" height="8.792" fill="#545052"/>
<rect x="854.539" y="98.4702" width="47.4768" height="8.792" fill="#545052"/>
<rect x="643.482" y="98.4702" width="47.4768" height="8.792" fill="#545052"/>
<rect x="907.292" y="98.4702" width="47.4768" height="8.792" fill="#545052"/>
<rect x="1276.6" y="98.0396" width="163.4" height="8.91271" fill="#545052"/>
<rect y="98" width="162" height="9" fill="#545052"/>
<rect x="274.219" y="14.0674" width="47.4768" height="8.792" fill="#E6E5E6"/>
<rect x="326.971" y="14.0674" width="47.4768" height="8.792" fill="#E6E5E6"/>
<rect x="959.704" y="14.0674" width="47.4768" height="8.792" fill="#E6E5E6"/>
<rect x="643.482" y="14.0674" width="47.4768" height="8.792" fill="#E6E5E6"/>
<rect x="907.292" y="14.0674" width="47.4768" height="8.792" fill="#E6E5E6"/>
<rect x="168.714" y="56.269" width="47.4768" height="8.792" fill="#A8A4A6"/>
<rect x="274.219" y="56.269" width="47.4768" height="8.792" fill="#A8A4A6"/>
<rect x="326.971" y="56.269" width="47.4768" height="8.792" fill="#A8A4A6"/>
<rect x="959.704" y="56.269" width="47.4768" height="8.792" fill="#A8A4A6"/>
<rect x="379.723" y="56.269" width="47.4768" height="8.792" fill="#A8A4A6"/>
<rect x="1012.46" y="56.269" width="47.4768" height="8.792" fill="#A8A4A6"/>
<rect x="1224.11" y="56.269" width="47.4768" height="8.792" fill="#A8A4A6"/>
<rect x="485.227" y="56.269" width="47.4768" height="8.792" fill="#A8A4A6"/>
<rect x="749.035" y="56.269" width="47.4768" height="8.792" fill="#A8A4A6"/>
<rect x="1118.15" y="56.269" width="47.4768" height="8.792" fill="#A8A4A6"/>
<rect x="590.73" y="56.269" width="47.4768" height="8.792" fill="#A8A4A6"/>
<rect x="854.539" y="56.269" width="47.4768" height="8.792" fill="#A8A4A6"/>
<rect x="643.482" y="56.269" width="47.4768" height="8.792" fill="#A8A4A6"/>
<rect x="907.292" y="56.269" width="47.4768" height="8.792" fill="#A8A4A6"/>
<rect y="56" width="162" height="9" fill="#A8A4A6"/>
<rect x="168.714" y="112.538" width="47.4768" height="8.792" fill="#1F1E1F"/>
<rect x="221.466" y="112.538" width="47.4768" height="8.792" fill="#1F1E1F"/>
<rect x="274.219" y="112.538" width="47.4768" height="8.792" fill="#1F1E1F"/>
<rect x="326.971" y="112.538" width="47.4768" height="8.792" fill="#1F1E1F"/>
<rect x="959.704" y="112.538" width="47.4768" height="8.792" fill="#1F1E1F"/>
<rect x="379.723" y="112.538" width="47.4768" height="8.792" fill="#1F1E1F"/>
<rect x="1012.46" y="112.538" width="47.4768" height="8.792" fill="#1F1E1F"/>
<rect x="1224.11" y="112.538" width="47.4768" height="8.792" fill="#1F1E1F"/>
<rect x="432.475" y="112.538" width="47.4768" height="8.792" fill="#1F1E1F"/>
<rect x="1065.21" y="112.538" width="47.4768" height="8.792" fill="#1F1E1F"/>
<rect x="696.284" y="112.538" width="47.4768" height="8.792" fill="#1F1E1F"/>
<rect x="485.227" y="112.538" width="47.4768" height="8.792" fill="#1F1E1F"/>
<rect x="749.035" y="112.538" width="47.4768" height="8.792" fill="#1F1E1F"/>
<rect x="1118.15" y="112.538" width="47.4768" height="8.792" fill="#1F1E1F"/>
<rect x="537.979" y="112.538" width="47.4768" height="8.792" fill="#1F1E1F"/>
<rect x="801.787" y="112.538" width="47.4768" height="8.792" fill="#1F1E1F"/>
<rect x="1170.9" y="112.538" width="47.4768" height="8.792" fill="#1F1E1F"/>
<rect x="590.73" y="112.538" width="47.4768" height="8.792" fill="#1F1E1F"/>
<rect x="854.539" y="112.538" width="47.4768" height="8.792" fill="#1F1E1F"/>
<rect x="643.482" y="112.538" width="47.4768" height="8.792" fill="#1F1E1F"/>
<rect x="907.292" y="112.538" width="47.4768" height="8.792" fill="#1F1E1F"/>
<rect x="1276.6" y="112.894" width="163.4" height="8.91271" fill="#1F1E1F"/>
<rect y="113" width="162" height="8" fill="#1F1E1F"/>
<rect x="274.219" y="28.1343" width="47.4768" height="8.792" fill="#DAD8D9"/>
<rect x="326.971" y="28.1343" width="47.4768" height="8.792" fill="#DAD8D9"/>
<rect x="959.704" y="28.1343" width="47.4768" height="8.792" fill="#DAD8D9"/>
<rect x="379.723" y="28.1343" width="47.4768" height="8.792" fill="#DAD8D9"/>
<rect x="1012.46" y="28.1343" width="47.4768" height="8.792" fill="#DAD8D9"/>
<rect x="1224.11" y="28.1343" width="47.4768" height="8.792" fill="#DAD8D9"/>
<rect x="590.73" y="28.1343" width="47.4768" height="8.792" fill="#DAD8D9"/>
<rect x="854.539" y="28.1343" width="47.4768" height="8.792" fill="#DAD8D9"/>
<rect x="643.482" y="28.1343" width="47.4768" height="8.792" fill="#DAD8D9"/>
<rect x="907.292" y="28.1343" width="47.4768" height="8.792" fill="#DAD8D9"/>
<rect x="168.714" y="84.4033" width="47.4768" height="8.792" fill="#888285"/>
<rect x="221.466" y="84.4033" width="47.4768" height="8.792" fill="#888285"/>
<rect x="274.219" y="84.4033" width="47.4768" height="8.792" fill="#888285"/>
<rect x="326.971" y="84.4033" width="47.4768" height="8.792" fill="#888285"/>
<rect x="959.704" y="84.4033" width="47.4768" height="8.792" fill="#888285"/>
<rect x="379.723" y="84.4033" width="47.4768" height="8.792" fill="#888285"/>
<rect x="1012.46" y="84.4033" width="47.4768" height="8.792" fill="#888285"/>
<rect x="1224.11" y="84.4033" width="47.4768" height="8.792" fill="#888285"/>
<rect x="432.475" y="84.4033" width="47.4768" height="8.792" fill="#888285"/>
<rect x="1065.21" y="84.4033" width="47.4768" height="8.792" fill="#888285"/>
<rect x="696.284" y="84.4033" width="47.4768" height="8.792" fill="#888285"/>
<rect x="485.227" y="84.4033" width="47.4768" height="8.792" fill="#888285"/>
<rect x="749.035" y="84.4033" width="47.4768" height="8.792" fill="#888285"/>
<rect x="1118.15" y="84.4033" width="47.4768" height="8.792" fill="#888285"/>
<rect x="537.979" y="84.4033" width="47.4768" height="8.792" fill="#888285"/>
<rect x="801.787" y="84.4033" width="47.4768" height="8.792" fill="#888285"/>
<rect x="1170.9" y="84.4033" width="47.4768" height="8.792" fill="#888285"/>
<rect x="590.73" y="84.4033" width="47.4768" height="8.792" fill="#888285"/>
<rect x="854.539" y="84.4033" width="47.4768" height="8.792" fill="#888285"/>
<rect x="643.482" y="84.4033" width="47.4768" height="8.792" fill="#888285"/>
<rect x="907.292" y="84.4033" width="47.4768" height="8.792" fill="#888285"/>
<rect x="1276.6" y="84.1758" width="163.4" height="8.91271" fill="#888285"/>
<rect y="84" width="162" height="9" fill="#888285"/>
<rect x="326.971" width="47.4768" height="8.792" fill="#F0EFF0"/>
<rect x="959.704" width="47.4768" height="8.792" fill="#F0EFF0"/>
</svg>
