<svg width="46" height="37" viewBox="0 0 46 37" fill="none" xmlns="http://www.w3.org/2000/svg">
<path d="M37.3541 23.921C33.2685 23.8787 30.9896 24.2906 26.6536 26.0618L25.812 24.0001C30.4063 22.1243 32.979 21.6489 37.3763 21.6946L37.3541 23.921ZM26.6536 21.6088C30.9896 19.8388 33.2696 19.4258 37.3541 19.4681L37.3763 17.2416C32.979 17.1959 30.4074 17.6713 25.812 19.5471L26.6536 21.6088ZM37.3541 15.0151C33.2685 14.9728 30.9896 15.3847 26.6536 17.1559L25.812 15.0941C30.4063 13.2183 32.979 12.743 37.3763 12.7886L37.3541 15.0151ZM34.5821 9.44556V6.10583H36.8086V9.44556H34.5821ZM30.6857 7.21908V10.5588H32.9122V7.21908H30.6857ZM26.7894 11.672V8.33232H29.0159V11.672H26.7894ZM8.43204 23.921C12.5176 23.8787 14.7964 24.2906 19.1325 26.0618L19.9741 24.0001C15.3798 22.1243 12.8071 21.6489 8.40977 21.6946L8.43204 23.921ZM19.1325 21.6088C14.7964 19.8388 12.5176 19.4258 8.43204 19.4681L8.40977 17.2416C12.8071 17.1959 15.3787 17.6713 19.9741 19.5471L19.1325 21.6088ZM8.43204 15.0151C12.5176 14.9728 14.7964 15.3847 19.1325 17.1559L19.9741 15.0941C15.3798 13.2183 12.8071 12.743 8.40977 12.7886L8.43204 15.0151ZM11.204 9.44556V6.10583H8.97753V9.44556H11.204ZM15.1004 7.21908V10.5588H12.8739V7.21908H15.1004ZM18.9967 11.672V8.33232H16.7702V11.672H18.9967Z" fill="#A63F73"/>
<path fill-rule="evenodd" clip-rule="evenodd" d="M42.9332 3.86232C43.3851 3.9614 43.846 4.06827 44.3169 4.18182C44.5576 4.2403 44.7716 4.37806 44.9244 4.57293C45.0773 4.76779 45.1602 5.00843 45.1596 5.2561V33.6872C45.1596 34.3918 44.5106 34.9173 43.8193 34.7859C36.9027 33.4667 32.2416 33.3743 25.8716 34.3406C25.5922 34.89 25.1662 35.3513 24.6409 35.6735C24.1155 35.9958 23.5112 36.1663 22.8948 36.1663C22.2785 36.1663 21.6742 35.9958 21.1488 35.6735C20.6234 35.3513 20.1974 34.89 19.918 34.3406C13.5492 33.3743 8.8858 33.4667 1.97034 34.7859C1.80788 34.8175 1.64044 34.8129 1.47997 34.7724C1.3195 34.7319 1.16994 34.6565 1.04194 34.5516C0.913945 34.4466 0.810666 34.3148 0.739462 34.1654C0.668258 34.0159 0.630883 33.8527 0.629998 33.6872V5.25721C0.629044 5.0093 0.711703 4.76831 0.864618 4.57318C1.01753 4.37804 1.23177 4.24016 1.47272 4.18182C1.94362 4.06827 2.4045 3.9614 2.85648 3.86232V3.35023C2.85648 2.36501 3.51218 1.4644 4.50853 1.2128C11.355 -0.508266 16.3401 1.31522 22.0499 3.9703C22.3282 4.02819 22.6098 4.08608 22.8948 4.14842C23.1798 4.08608 23.4626 4.02819 23.7409 3.9703C29.4496 1.31522 34.4347 -0.508267 41.2811 1.21392C41.7551 1.33516 42.175 1.61117 42.4743 1.99818C42.7735 2.38518 42.935 2.86101 42.9332 3.35023V3.86232ZM40.7067 29.4491V3.3647C34.408 1.78946 29.9272 3.51499 24.0081 6.30366V32.1776L24.0114 32.1798L24.0136 32.181C24.0167 32.1827 24.0201 32.1838 24.0237 32.1843H24.027C24.0293 32.1837 24.0315 32.183 24.0337 32.1821C29.4986 29.7084 34.2655 28.3046 40.6466 29.4691C40.6557 29.4709 40.665 29.4708 40.6741 29.4687C40.6831 29.4666 40.6916 29.4625 40.6989 29.4568C40.7018 29.4546 40.7044 29.452 40.7067 29.4491ZM21.7782 32.1798L21.7816 32.1776V6.30366C15.8625 3.5161 11.3817 1.78946 5.08296 3.3647V29.4491L5.09076 29.4568C5.09813 29.4629 5.10674 29.4672 5.11598 29.4695C5.12522 29.4718 5.13485 29.4721 5.14419 29.4702C11.5231 28.3046 16.2911 29.7084 21.756 32.181C21.7588 32.1825 21.7618 32.1836 21.7649 32.1843C21.7693 32.1838 21.7746 32.1822 21.7782 32.1798Z" fill="#A63F73"/>
</svg>
