<svg width="1000" height="136" viewBox="0 0 1000 136" fill="none" xmlns="http://www.w3.org/2000/svg">
<g id="NEW WEB FULL">
<rect id="Rectangle 1421" x="162" y="60" width="33" height="6" fill="#545052"/>
<rect id="Rectangle 1422" x="199" y="60" width="33" height="6" fill="#545052"/>
<rect id="Rectangle 1423" x="236" y="60" width="33" height="6" fill="#545052"/>
<rect id="Rectangle 1424" x="273" y="60" width="33" height="6" fill="#545052"/>
<rect id="Rectangle 1425" x="310" y="60" width="33" height="6" fill="#545052"/>
<rect id="Rectangle 1426" x="347" y="60" width="33" height="6" fill="#545052"/>
<rect id="Rectangle 1427" x="384" y="60" width="33" height="6" fill="#545052"/>
<rect id="Rectangle 1428" x="421" y="60" width="33" height="6" fill="#545052"/>
<rect id="Rectangle 1429" x="458" y="60" width="33" height="6" fill="#545052"/>
<rect id="Rectangle 1430" x="495" y="60" width="33" height="6" fill="#545052"/>
<rect id="Rectangle 1431" x="532" y="60" width="33" height="6" fill="#545052"/>
<rect id="Rectangle 1432" x="569" y="60" width="33" height="6" fill="#545052"/>
<rect id="Rectangle 1433" x="606" y="60" width="33" height="6" fill="#545052"/>
<rect id="Rectangle 1434" x="643" y="60" width="33" height="6" fill="#545052"/>
<rect id="Rectangle 1435" x="680" y="60" width="33" height="6" fill="#545052"/>
<rect id="Rectangle 1436" x="828" y="60" width="33" height="6" fill="#545052"/>
<rect id="Rectangle 1437" x="865" y="60" width="33" height="6" fill="#545052"/>
<rect id="Rectangle 1438" x="717" y="60" width="33" height="6" fill="#545052"/>
<rect id="Rectangle 1439" x="754" y="60" width="33" height="6" fill="#545052"/>
<rect id="Rectangle 1440" x="791" y="60" width="33" height="6" fill="#545052"/>
<rect id="Rectangle 1441" x="125" y="60" width="33" height="6" fill="#545052"/>
<rect id="Rectangle 1442" x="125" y="70" width="33" height="6" fill="#1F1E1F"/>
<rect id="Rectangle 1443" y="40" width="121" height="6" fill="#888285"/>
<rect id="Rectangle 1444" y="20" width="121" height="6" fill="#CDCBCC"/>
<rect id="Rectangle 1445" y="60" width="121" height="6" fill="#545052"/>
<rect id="Rectangle 1446" y="30" width="121" height="6" fill="#A8A4A6"/>
<rect id="Rectangle 1447" y="70" width="121" height="6" fill="#1F1E1F"/>
<rect id="Rectangle 1448" y="50" width="121" height="6" fill="#888285"/>
<rect id="Rectangle 1449" x="902" y="60" width="98" height="6" fill="#545052"/>
<path id="Rectangle 1450" d="M0 117H1000V136H0V126.5V117Z" fill="#121112"/>
<rect id="Rectangle 1451" y="80" width="121" height="39" fill="#121112"/>
<rect id="Rectangle 1452" x="125" y="80" width="33" height="39" fill="#121112"/>
<path id="Rectangle 1453" d="M162 80H194.97V118.806H162V80Z" fill="#121112"/>
<path id="Rectangle 1454" d="M198.97 80.0307H231.94V118.837H198.97V80.0307Z" fill="#121112"/>
<rect id="Rectangle 1455" x="236.062" y="80.0308" width="32.97" height="38.8064" fill="#121112"/>
<rect id="Rectangle 1456" x="273" y="80" width="32.97" height="38.8064" fill="#121112"/>
<rect id="Rectangle 1457" x="310" y="80" width="32.97" height="38.8064" fill="#121112"/>
<rect id="Rectangle 1458" x="347" y="80" width="32.97" height="38.8064" fill="#121112"/>
<rect id="Rectangle 1459" x="384" y="80" width="32.97" height="38.8064" fill="#121112"/>
<rect id="Rectangle 1460" x="421" y="80" width="32.97" height="38.8064" fill="#121112"/>
<rect id="Rectangle 1461" x="458" y="80" width="32.97" height="38.8064" fill="#121112"/>
<rect id="Rectangle 1462" x="495" y="80" width="505" height="39" fill="#121112"/>
<rect id="Rectangle 1463" x="125" y="40" width="33" height="6" fill="#888285"/>
<rect id="Rectangle 1464" x="162" y="40" width="33" height="6" fill="#888285"/>
<rect id="Rectangle 1465" x="199" y="40" width="33" height="6" fill="#888285"/>
<rect id="Rectangle 1466" x="236" y="40" width="33" height="6" fill="#888285"/>
<rect id="Rectangle 1467" x="828" y="40" width="33" height="6" fill="#888285"/>
<rect id="Rectangle 1468" x="680" y="40" width="33" height="6" fill="#888285"/>
<rect id="Rectangle 1469" x="865" y="40" width="33" height="6" fill="#888285"/>
<rect id="Rectangle 1470" x="273" y="40" width="33" height="6" fill="#888285"/>
<rect id="Rectangle 1471" x="717" y="40" width="33" height="6" fill="#888285"/>
<rect id="Rectangle 1472" x="310" y="40" width="33" height="6" fill="#888285"/>
<rect id="Rectangle 1473" x="754" y="40" width="33" height="6" fill="#888285"/>
<rect id="Rectangle 1474" x="495" y="40" width="33" height="6" fill="#888285"/>
<rect id="Rectangle 1475" x="347" y="40" width="33" height="6" fill="#888285"/>
<rect id="Rectangle 1476" x="532" y="40" width="33" height="6" fill="#888285"/>
<rect id="Rectangle 1477" x="421" y="40" width="33" height="6" fill="#888285"/>
<rect id="Rectangle 1478" x="606" y="40" width="33" height="6" fill="#888285"/>
<rect id="Rectangle 1479" x="458" y="40" width="33" height="6" fill="#888285"/>
<rect id="Rectangle 1480" x="643" y="40" width="33" height="6" fill="#888285"/>
<rect id="Rectangle 1481" x="902" y="40" width="98" height="6" fill="#888285"/>
<rect id="Rectangle 1482" x="199" y="20" width="33" height="6" fill="#CDCBCC"/>
<rect id="Rectangle 1483" x="828" y="20" width="33" height="6" fill="#CDCBCC"/>
<rect id="Rectangle 1484" x="236" y="20" width="33" height="6" fill="#CDCBCC"/>
<rect id="Rectangle 1485" x="680" y="20" width="33" height="6" fill="#CDCBCC"/>
<rect id="Rectangle 1486" x="865" y="20" width="33" height="6" fill="#CDCBCC"/>
<rect id="Rectangle 1487" x="273" y="20" width="33" height="6" fill="#CDCBCC"/>
<rect id="Rectangle 1488" x="717" y="20" width="33" height="6" fill="#CDCBCC"/>
<rect id="Rectangle 1489" x="347" y="20" width="33" height="6" fill="#CDCBCC"/>
<rect id="Rectangle 1490" x="532" y="20" width="33" height="6" fill="#CDCBCC"/>
<rect id="Rectangle 1491" x="421" y="20" width="33" height="6" fill="#CDCBCC"/>
<rect id="Rectangle 1492" x="606" y="20" width="33" height="6" fill="#CDCBCC"/>
<rect id="Rectangle 1493" x="458" y="20" width="33" height="6" fill="#CDCBCC"/>
<rect id="Rectangle 1494" x="643" y="20" width="33" height="6" fill="#CDCBCC"/>
<rect id="Rectangle 1495" x="236" width="33" height="6" fill="#E6E5E6"/>
<rect id="Rectangle 1496" x="828" width="33" height="6" fill="#E6E5E6"/>
<rect id="Rectangle 1497" x="458" width="33" height="6" fill="#E6E5E6"/>
<rect id="Rectangle 1498" x="643" width="33" height="6" fill="#E6E5E6"/>
<rect id="Rectangle 1499" x="828" y="30" width="33" height="6" fill="#A8A4A6"/>
<rect id="Rectangle 1500" x="199" y="30" width="33" height="6" fill="#A8A4A6"/>
<rect id="Rectangle 1501" x="236" y="30" width="33" height="6" fill="#A8A4A6"/>
<rect id="Rectangle 1502" x="680" y="30" width="33" height="6" fill="#A8A4A6"/>
<rect id="Rectangle 1503" x="865" y="30" width="33" height="6" fill="#A8A4A6"/>
<rect id="Rectangle 1504" x="273" y="30" width="33" height="6" fill="#A8A4A6"/>
<rect id="Rectangle 1505" x="717" y="30" width="33" height="6" fill="#A8A4A6"/>
<rect id="Rectangle 1506" x="754" y="30" width="33" height="6" fill="#A8A4A6"/>
<rect id="Rectangle 1507" x="347" y="30" width="33" height="6" fill="#A8A4A6"/>
<rect id="Rectangle 1508" x="532" y="30" width="33" height="6" fill="#A8A4A6"/>
<rect id="Rectangle 1509" x="421" y="30" width="33" height="6" fill="#A8A4A6"/>
<rect id="Rectangle 1510" x="606" y="30" width="33" height="6" fill="#A8A4A6"/>
<rect id="Rectangle 1511" x="458" y="30" width="33" height="6" fill="#A8A4A6"/>
<rect id="Rectangle 1512" x="643" y="30" width="33" height="6" fill="#A8A4A6"/>
<rect id="Rectangle 1513" x="162" y="70" width="33" height="6" fill="#1F1E1F"/>
<rect id="Rectangle 1514" x="199" y="70" width="33" height="6" fill="#1F1E1F"/>
<rect id="Rectangle 1515" x="236" y="70" width="33" height="6" fill="#1F1E1F"/>
<rect id="Rectangle 1516" x="273" y="70" width="33" height="6" fill="#1F1E1F"/>
<rect id="Rectangle 1517" x="310" y="70" width="33" height="6" fill="#1F1E1F"/>
<rect id="Rectangle 1518" x="347" y="70" width="33" height="6" fill="#1F1E1F"/>
<rect id="Rectangle 1519" x="384" y="70" width="33" height="6" fill="#1F1E1F"/>
<rect id="Rectangle 1520" x="421" y="70" width="33" height="6" fill="#1F1E1F"/>
<rect id="Rectangle 1521" x="458" y="70" width="33" height="6" fill="#1F1E1F"/>
<rect id="Rectangle 1522" x="495" y="70" width="33" height="6" fill="#1F1E1F"/>
<rect id="Rectangle 1523" x="532" y="70" width="33" height="6" fill="#1F1E1F"/>
<rect id="Rectangle 1524" x="828" y="70" width="33" height="6" fill="#1F1E1F"/>
<rect id="Rectangle 1525" x="569" y="70" width="33" height="6" fill="#1F1E1F"/>
<rect id="Rectangle 1526" x="606" y="70" width="33" height="6" fill="#1F1E1F"/>
<rect id="Rectangle 1527" x="643" y="70" width="33" height="6" fill="#1F1E1F"/>
<rect id="Rectangle 1528" x="680" y="70" width="33" height="6" fill="#1F1E1F"/>
<rect id="Rectangle 1529" x="865" y="70" width="33" height="6" fill="#1F1E1F"/>
<rect id="Rectangle 1530" x="717" y="70" width="33" height="6" fill="#1F1E1F"/>
<rect id="Rectangle 1531" x="754" y="70" width="33" height="6" fill="#1F1E1F"/>
<rect id="Rectangle 1532" x="791" y="70" width="33" height="6" fill="#1F1E1F"/>
<rect id="Rectangle 1533" x="902" y="70" width="98" height="6" fill="#1F1E1F"/>
<rect id="Rectangle 1534" x="199" y="10" width="33" height="6" fill="#DAD8D9"/>
<rect id="Rectangle 1535" x="236" y="10" width="33" height="6" fill="#DAD8D9"/>
<rect id="Rectangle 1536" x="828" y="10" width="33" height="6" fill="#DAD8D9"/>
<rect id="Rectangle 1537" x="273" y="10" width="33" height="6" fill="#DAD8D9"/>
<rect id="Rectangle 1538" x="717" y="10" width="33" height="6" fill="#DAD8D9"/>
<rect id="Rectangle 1539" x="421" y="10" width="33" height="6" fill="#DAD8D9"/>
<rect id="Rectangle 1540" x="125" y="50" width="33" height="6" fill="#888285"/>
<rect id="Rectangle 1541" x="606" y="10" width="33" height="6" fill="#DAD8D9"/>
<rect id="Rectangle 1542" x="458" y="10" width="33" height="6" fill="#DAD8D9"/>
<rect id="Rectangle 1543" x="643" y="10" width="33" height="6" fill="#DAD8D9"/>
<rect id="Rectangle 1544" x="162" y="50" width="33" height="6" fill="#888285"/>
<rect id="Rectangle 1545" x="199" y="50" width="33" height="6" fill="#888285"/>
<rect id="Rectangle 1546" x="236" y="50" width="33" height="6" fill="#888285"/>
<rect id="Rectangle 1547" x="273" y="50" width="33" height="6" fill="#888285"/>
<rect id="Rectangle 1548" x="310" y="50" width="33" height="6" fill="#888285"/>
<rect id="Rectangle 1549" x="347" y="50" width="33" height="6" fill="#888285"/>
<rect id="Rectangle 1550" x="384" y="50" width="33" height="6" fill="#888285"/>
<rect id="Rectangle 1551" x="421" y="50" width="33" height="6" fill="#888285"/>
<rect id="Rectangle 1552" x="458" y="50" width="33" height="6" fill="#888285"/>
<rect id="Rectangle 1553" x="495" y="50" width="33" height="6" fill="#888285"/>
<rect id="Rectangle 1554" x="828" y="50" width="33" height="6" fill="#888285"/>
<rect id="Rectangle 1555" x="532" y="50" width="33" height="6" fill="#888285"/>
<rect id="Rectangle 1556" x="569" y="50" width="33" height="6" fill="#888285"/>
<rect id="Rectangle 1557" x="606" y="50" width="33" height="6" fill="#888285"/>
<rect id="Rectangle 1558" x="643" y="50" width="33" height="6" fill="#888285"/>
<rect id="Rectangle 1559" x="680" y="50" width="33" height="6" fill="#888285"/>
<rect id="Rectangle 1560" x="865" y="50" width="33" height="6" fill="#888285"/>
<rect id="Rectangle 1561" x="717" y="50" width="33" height="6" fill="#888285"/>
<rect id="Rectangle 1562" x="754" y="50" width="33" height="6" fill="#888285"/>
<rect id="Rectangle 1563" x="902" y="50" width="98" height="6" fill="#888285"/>
<g id="WORDS">
<path id="F" d="M100.67 110V88.782H114.884V93.8813H106.708V96.9878H113.595V101.794H106.708V110H100.67Z" fill="#F0EFF0"/>
<path id="u" d="M151.788 88.8418V100.008C151.788 103.231 151.173 105.459 150.001 107.012C148.418 109.122 145.517 110.382 141.971 110.382C138.483 110.382 135.435 109.181 133.823 106.924C132.71 105.371 132.153 103.114 132.153 100.008V88.8418H138.19V99.6559C138.19 101.707 138.424 102.909 139.011 103.73C139.597 104.55 140.622 105.136 142.088 105.136C143.407 105.136 144.374 104.667 144.989 103.905C145.663 103.085 145.986 101.737 145.986 99.6559V88.8418H151.788Z" fill="#F0EFF0"/>
<path id="u_2" d="M484.488 88.8418V100.008C484.488 103.231 483.872 105.459 482.7 107.012C481.117 109.122 478.216 110.382 474.67 110.382C471.182 110.382 468.134 109.181 466.523 106.924C465.409 105.371 464.852 103.114 464.852 100.008V88.8418H470.889V99.6559C470.889 101.707 471.124 102.909 471.71 103.73C472.296 104.55 473.322 105.136 474.787 105.136C476.106 105.136 477.073 104.667 477.688 103.905C478.362 103.085 478.685 101.737 478.685 99.6559V88.8418H484.488Z" fill="#F0EFF0"/>
<path id="E" d="M171.404 110.06V88.8418H185.237V93.9411H177.441V96.6374H184.035V101.444H177.441V104.96H185.588V110.06H171.404Z" fill="#F0EFF0"/>
<path id="E_2" d="M283.304 110.06V88.8418H297.137V93.9411H289.341V96.6374H295.935V101.444H289.341V104.96H297.488V110.06H283.304Z" fill="#F0EFF0"/>
<path id="A" d="M352.517 110.06L361.103 88.8418H367.053L375.64 110.06H369.075L367.58 105.722H360.312L358.759 110.06H352.517ZM364.034 95.2892H363.976C363.565 96.6374 363.155 97.8682 362.657 99.2456L361.924 101.268H366.027L365.324 99.2456C364.825 97.8096 364.444 96.608 364.034 95.2892Z" fill="#F0EFF0"/>
<path id="A_2" d="M501.271 110.06L509.857 88.8418H515.807L524.393 110.06H517.829L516.334 105.722H509.066L507.513 110.06H501.271ZM512.788 95.2892H512.729C512.319 96.6374 511.909 97.8682 511.411 99.2456L510.678 101.268H514.781L514.078 99.2456C513.579 97.8096 513.198 96.608 512.788 95.2892Z" fill="#F0EFF0"/>
<path id="C" d="M409.303 103.173V109.122C407.428 110.001 405.171 110.382 403.149 110.382C396.027 110.382 391.25 105.634 391.25 99.4801C391.25 93.2085 396.203 88.5194 403.149 88.5194C405.259 88.5194 407.31 88.959 409.01 89.721V95.6409C407.457 94.6738 405.347 93.8825 403.266 93.8825C399.691 93.8825 397.287 96.1978 397.287 99.4215C397.287 102.499 399.515 105.019 403.383 105.019C405.464 105.019 407.516 104.286 409.303 103.173Z" fill="#F0EFF0"/>
<path id="R" d="M206.595 110.06V88.8418H214.009C216.588 88.8418 218.493 89.1642 219.959 89.8968C222.01 90.8933 223.388 92.681 223.388 95.4358C223.388 98.0441 222.127 100.037 219.49 101.151L225.117 110.06H218.288L213.57 102H212.632V110.06H206.595ZM212.632 97.8682H214.127C215.24 97.8682 216.032 97.7217 216.5 97.4286C217.057 97.1063 217.35 96.5494 217.35 95.7582C217.35 94.8496 216.94 94.2928 216.325 93.9998C215.826 93.7653 215.123 93.6481 213.746 93.6481H212.632V97.8682Z" fill="#F0EFF0"/>
<path id="T" d="M249.696 110.06V93.9411H242.955V88.8418H262.473V93.9411H255.733V110.06H249.696Z" fill="#F0EFF0"/>
<path id="T_2" d="M434.862 110.06V93.9411H428.121V88.8418H447.639V93.9411H440.899V110.06H434.862Z" fill="#F0EFF0"/>
<path id="PLAY" fill-rule="evenodd" clip-rule="evenodd" d="M326.916 111.862C333.717 111.862 339.229 106.11 339.229 99.0139C339.229 91.918 333.717 86.1657 326.916 86.1657C320.116 86.1657 314.604 91.918 314.604 99.0139C314.604 106.11 320.116 111.862 326.916 111.862ZM322.424 107.238L335.831 99.0136L322.424 90.7894L322.424 107.238Z" fill="white"/>
</g>
</g>
</svg>
