<svg width="390" height="168" viewBox="0 0 390 168" fill="none" xmlns="http://www.w3.org/2000/svg">
<g clip-path="url(#clip0_273_272)">
<rect x="46" y="88" width="27" height="5" fill="#121112"/>
<rect x="76" y="88" width="27" height="5" fill="#121112"/>
<rect x="106" y="88" width="27" height="5" fill="#121112"/>
<rect x="136" y="88" width="27" height="5" fill="#121112"/>
<rect x="166" y="88" width="27" height="5" fill="#121112"/>
<rect x="196" y="88" width="27" height="5" fill="#121112"/>
<rect x="226" y="88" width="27" height="5" fill="#121112"/>
<rect x="256" y="88" width="27" height="5" fill="#121112"/>
<rect x="286" y="88" width="27" height="5" fill="#121112"/>
<rect x="316" y="88" width="27" height="5" fill="#121112"/>
<rect x="346" y="88" width="44" height="5" fill="#121112"/>
<rect y="88" width="43" height="5" fill="#121112"/>
<rect x="46" y="40" width="27" height="5" fill="#A8A4A6"/>
<rect x="76" y="40" width="27" height="5" fill="#A8A4A6"/>
<rect x="106" y="40" width="27" height="5" fill="#A8A4A6"/>
<rect x="136" y="40" width="27" height="5" fill="#A8A4A6"/>
<rect x="166" y="40" width="27" height="5" fill="#A8A4A6"/>
<rect x="196" y="40" width="27" height="5" fill="#A8A4A6"/>
<rect x="226" y="40" width="27" height="5" fill="#A8A4A6"/>
<rect x="286" y="40" width="27" height="5" fill="#A8A4A6"/>
<rect x="316" y="40" width="27" height="5" fill="#A8A4A6"/>
<rect x="346" y="40" width="44" height="5" fill="#A8A4A6"/>
<rect y="40" width="43" height="5" fill="#A8A4A6"/>
<rect x="46" y="72" width="27" height="5" fill="#413E40"/>
<rect x="76" y="72" width="27" height="5" fill="#413E40"/>
<rect x="106" y="72" width="27" height="5" fill="#413E40"/>
<rect x="136" y="72" width="27" height="5" fill="#413E40"/>
<rect x="166" y="72" width="27" height="5" fill="#413E40"/>
<rect x="196" y="72" width="27" height="5" fill="#413E40"/>
<rect x="226" y="72" width="27" height="5" fill="#413E40"/>
<rect x="256" y="72" width="27" height="5" fill="#413E40"/>
<rect x="286" y="72" width="27" height="5" fill="#413E40"/>
<rect x="316" y="72" width="27" height="5" fill="#413E40"/>
<rect x="346" y="72" width="44" height="5" fill="#413E40"/>
<rect y="72" width="43" height="5" fill="#413E40"/>
<rect x="106" y="24" width="27" height="5" fill="#DAD8D9"/>
<rect x="136" y="24" width="27" height="5" fill="#DAD8D9"/>
<rect x="166" y="24" width="27" height="5" fill="#DAD8D9"/>
<rect x="226" y="24" width="27" height="5" fill="#DAD8D9"/>
<rect x="286" y="24" width="27" height="5" fill="#DAD8D9"/>
<rect x="316" y="24" width="27" height="5" fill="#DAD8D9"/>
<rect y="24" width="43" height="5" fill="#DAD8D9"/>
<rect x="46" y="56" width="27" height="5" fill="#767073"/>
<rect x="76" y="56" width="27" height="5" fill="#767073"/>
<rect x="106" y="56" width="27" height="5" fill="#767073"/>
<rect x="136" y="56" width="27" height="5" fill="#767073"/>
<rect x="166" y="56" width="27" height="5" fill="#767073"/>
<rect x="196" y="56" width="27" height="5" fill="#767073"/>
<rect x="226" y="56" width="27" height="5" fill="#767073"/>
<rect x="256" y="56" width="27" height="5" fill="#767073"/>
<rect x="286" y="56" width="27" height="5" fill="#767073"/>
<rect x="316" y="56" width="27" height="5" fill="#767073"/>
<rect x="346" y="56" width="44" height="5" fill="#767073"/>
<rect y="56" width="43" height="5" fill="#767073"/>
<rect x="106" y="8" width="27" height="5" fill="#F0EFF0"/>
<rect x="136" y="8" width="27" height="5" fill="#F0EFF0"/>
<rect x="316" y="8" width="27" height="5" fill="#F0EFF0"/>
<rect x="46" y="80" width="27" height="5" fill="#1F1E1F"/>
<rect x="76" y="80" width="27" height="5" fill="#1F1E1F"/>
<rect x="106" y="80" width="27" height="5" fill="#1F1E1F"/>
<rect x="136" y="80" width="27" height="5" fill="#1F1E1F"/>
<rect x="166" y="80" width="27" height="5" fill="#1F1E1F"/>
<rect x="196" y="80" width="27" height="5" fill="#1F1E1F"/>
<rect x="226" y="80" width="27" height="5" fill="#1F1E1F"/>
<rect x="256" y="80" width="27" height="5" fill="#1F1E1F"/>
<rect x="286" y="80" width="27" height="5" fill="#1F1E1F"/>
<rect x="316" y="80" width="27" height="5" fill="#1F1E1F"/>
<rect x="346" y="80" width="44" height="5" fill="#1F1E1F"/>
<rect y="80" width="43" height="5" fill="#1F1E1F"/>
<rect x="46" y="32" width="27" height="5" fill="#CDCBCC"/>
<rect x="106" y="32" width="27" height="5" fill="#CDCBCC"/>
<rect x="136" y="32" width="27" height="5" fill="#CDCBCC"/>
<rect x="166" y="32" width="27" height="5" fill="#CDCBCC"/>
<rect x="226" y="32" width="27" height="5" fill="#CDCBCC"/>
<rect x="286" y="32" width="27" height="5" fill="#CDCBCC"/>
<rect x="316" y="32" width="27" height="5" fill="#CDCBCC"/>
<rect y="32" width="43" height="5" fill="#CDCBCC"/>
<rect x="46" y="64" width="27" height="5" fill="#545052"/>
<rect x="76" y="64" width="27" height="5" fill="#545052"/>
<rect x="106" y="64" width="27" height="5" fill="#545052"/>
<rect x="136" y="64" width="27" height="5" fill="#545052"/>
<rect x="166" y="64" width="27" height="5" fill="#545052"/>
<rect x="196" y="64" width="27" height="5" fill="#545052"/>
<rect x="226" y="64" width="27" height="5" fill="#545052"/>
<rect x="256" y="64" width="27" height="5" fill="#545052"/>
<rect x="286" y="64" width="27" height="5" fill="#545052"/>
<rect x="316" y="64" width="27" height="5" fill="#545052"/>
<rect x="346" y="64" width="44" height="5" fill="#545052"/>
<rect y="64" width="43" height="5" fill="#545052"/>
<rect x="106" y="16" width="27" height="5" fill="#E6E5E6"/>
<rect x="136" y="16" width="27" height="5" fill="#E6E5E6"/>
<rect x="166" y="16" width="27" height="5" fill="#E6E5E6"/>
<rect x="286" y="16" width="27" height="5" fill="#E6E5E6"/>
<rect x="316" y="16" width="27" height="5" fill="#E6E5E6"/>
<rect x="46" y="48" width="27" height="5" fill="#888285"/>
<rect x="76" y="48" width="27" height="5" fill="#888285"/>
<rect x="106" y="48" width="27" height="5" fill="#888285"/>
<rect x="136" y="48" width="27" height="5" fill="#888285"/>
<rect x="166" y="48" width="27" height="5" fill="#888285"/>
<rect x="196" y="48" width="27" height="5" fill="#888285"/>
<rect x="226" y="48" width="27" height="5" fill="#888285"/>
<rect x="256" y="48" width="27" height="5" fill="#888285"/>
<rect x="286" y="48" width="27" height="5" fill="#888285"/>
<rect x="316" y="48" width="27" height="5" fill="#888285"/>
<rect x="346" y="48" width="44" height="5" fill="#888285"/>
<rect y="48" width="43" height="5" fill="#888285"/>
<rect x="136" width="27" height="5" fill="white"/>
<rect y="96" width="390" height="72" fill="#121112"/>
</g>
<defs>
<clipPath id="clip0_273_272">
<rect width="390" height="168" fill="white"/>
</clipPath>
</defs>
</svg>
