<svg width="390" height="165" viewBox="0 0 390 165" fill="none" xmlns="http://www.w3.org/2000/svg">
<g id="NEW MOBILE FULL">
<path id="Rectangle 872" d="M0 112.8H390V164.8H0V112.8Z" fill="#121112"/>
<rect id="Rectangle 873" y="86.8" width="56" height="31" fill="#121112"/>
<rect id="Rectangle 875" x="58.8501" y="86.4" width="24.3" height="31.5" fill="#121112"/>
<rect id="Rectangle 876" x="85.8501" y="86.4" width="24.3" height="31.5" fill="#121112"/>
<rect id="Rectangle 877" x="112.851" y="86.4" width="24.3" height="31.5" fill="#121112"/>
<rect id="Rectangle 878" x="139.851" y="86.4" width="24.3" height="31.5" fill="#121112"/>
<rect id="Rectangle 879" x="166.851" y="86.4" width="24.3" height="31.5" fill="#121112"/>
<rect id="Rectangle 880" x="193.851" y="86.4" width="24.3" height="31.5" fill="#121112"/>
<rect id="Rectangle 881" x="220.851" y="86.4" width="24.3" height="31.5" fill="#121112"/>
<rect id="Rectangle 882" x="247.851" y="86.4" width="24.3" height="31.5" fill="#121112"/>
<rect id="Rectangle 883" x="274.851" y="86.4" width="24.3" height="31.5" fill="#121112"/>
<rect id="Rectangle 884" x="301.851" y="86.4" width="24.3" height="31.5" fill="#121112"/>
<rect id="Rectangle 874" x="329" y="86.8" width="61" height="31" fill="#121112"/>
<rect id="Rectangle 1566" x="58.8496" y="79.2" width="24.3" height="4.5" fill="#121112"/>
<rect id="Rectangle 1567" x="85.8496" y="79.2" width="24.3" height="4.5" fill="#121112"/>
<rect id="Rectangle 1568" x="112.85" y="79.2" width="24.3" height="4.5" fill="#121112"/>
<rect id="Rectangle 1569" x="139.85" y="79.2" width="24.3" height="4.5" fill="#121112"/>
<rect id="Rectangle 1570" x="166.85" y="79.2" width="24.3" height="4.5" fill="#121112"/>
<rect id="Rectangle 1571" x="193.85" y="79.2" width="24.3" height="4.5" fill="#121112"/>
<rect id="Rectangle 1572" x="220.85" y="79.2" width="24.3" height="4.5" fill="#121112"/>
<rect id="Rectangle 1573" x="247.85" y="79.2" width="24.3" height="4.5" fill="#121112"/>
<rect id="Rectangle 1574" x="274.85" y="79.2" width="24.3" height="4.5" fill="#121112"/>
<rect id="Rectangle 1575" x="301.85" y="79.2" width="24.3" height="4.5" fill="#121112"/>
<rect id="Rectangle 1576" x="329" y="78.8" width="61" height="5" fill="#121112"/>
<rect id="Rectangle 1577" y="78.8" width="56" height="5" fill="#121112"/>
<rect id="Rectangle 1578" x="58.8496" y="36" width="24.3" height="4.5" fill="#A8A4A6"/>
<rect id="Rectangle 1580" x="112.85" y="36" width="24.3" height="4.5" fill="#A8A4A6"/>
<rect id="Rectangle 1581" x="139.85" y="36" width="24.3" height="4.5" fill="#A8A4A6"/>
<rect id="Rectangle 1582" x="166.85" y="36" width="24.3" height="4.5" fill="#A8A4A6"/>
<rect id="Rectangle 1583" x="193.85" y="36" width="24.3" height="4.5" fill="#A8A4A6"/>
<rect id="Rectangle 1584" x="220.85" y="36" width="24.3" height="4.5" fill="#A8A4A6"/>
<rect id="Rectangle 1585" x="274.85" y="36" width="24.3" height="4.5" fill="#A8A4A6"/>
<rect id="Rectangle 1586" x="301.85" y="36" width="24.3" height="4.5" fill="#A8A4A6"/>
<rect id="Rectangle 1587" x="329" y="35.8" width="61" height="5" fill="#A8A4A6"/>
<rect id="Rectangle 1588" y="35.8" width="56" height="5" fill="#A8A4A6"/>
<rect id="Rectangle 1589" x="58.8496" y="64.8" width="24.3" height="4.5" fill="#413E40"/>
<rect id="Rectangle 1590" x="85.8496" y="64.8" width="24.3" height="4.5" fill="#413E40"/>
<rect id="Rectangle 1591" x="112.85" y="64.8" width="24.3" height="4.5" fill="#413E40"/>
<rect id="Rectangle 1592" x="139.85" y="64.8" width="24.3" height="4.5" fill="#413E40"/>
<rect id="Rectangle 1593" x="166.85" y="64.8" width="24.3" height="4.5" fill="#413E40"/>
<rect id="Rectangle 1594" x="193.85" y="64.8" width="24.3" height="4.5" fill="#413E40"/>
<rect id="Rectangle 1595" x="220.85" y="64.8" width="24.3" height="4.5" fill="#413E40"/>
<rect id="Rectangle 1596" x="247.85" y="64.8" width="24.3" height="4.5" fill="#413E40"/>
<rect id="Rectangle 1597" x="274.85" y="64.8" width="24.3" height="4.5" fill="#413E40"/>
<rect id="Rectangle 1598" x="301.85" y="64.8" width="24.3" height="4.5" fill="#413E40"/>
<rect id="Rectangle 1599" x="329" y="64.8" width="61" height="4" fill="#413E40"/>
<rect id="Rectangle 1600" y="64.8" width="56" height="5" fill="#413E40"/>
<rect id="Rectangle 1601" x="112.85" y="21.6" width="24.3" height="4.5" fill="#DAD8D9"/>
<rect id="Rectangle 1602" x="139.85" y="21.6" width="24.3" height="4.5" fill="#DAD8D9"/>
<rect id="Rectangle 1603" x="166.85" y="21.6" width="24.3" height="4.5" fill="#DAD8D9"/>
<rect id="Rectangle 1604" x="220.85" y="21.6" width="24.3" height="4.5" fill="#DAD8D9"/>
<rect id="Rectangle 1605" x="274.85" y="21.6" width="24.3" height="4.5" fill="#DAD8D9"/>
<rect id="Rectangle 1606" x="301.85" y="21.6" width="24.3" height="4.5" fill="#DAD8D9"/>
<rect id="Rectangle 1607" y="21.8" width="56" height="4" fill="#DAD8D9"/>
<rect id="Rectangle 1608" x="58.8496" y="50.4" width="24.3" height="4.5" fill="#767073"/>
<rect id="Rectangle 1609" x="85.8496" y="50.4" width="24.3" height="4.5" fill="#767073"/>
<rect id="Rectangle 1610" x="112.85" y="50.4" width="24.3" height="4.5" fill="#767073"/>
<rect id="Rectangle 1611" x="139.85" y="50.4" width="24.3" height="4.5" fill="#767073"/>
<rect id="Rectangle 1612" x="166.85" y="50.4" width="24.3" height="4.5" fill="#767073"/>
<rect id="Rectangle 1613" x="193.85" y="50.4" width="24.3" height="4.5" fill="#767073"/>
<rect id="Rectangle 1614" x="220.85" y="50.4" width="24.3" height="4.5" fill="#767073"/>
<rect id="Rectangle 1615" x="247.85" y="50.4" width="24.3" height="4.5" fill="#767073"/>
<rect id="Rectangle 1616" x="274.85" y="50.4" width="24.3" height="4.5" fill="#767073"/>
<rect id="Rectangle 1617" x="301.85" y="50.4" width="24.3" height="4.5" fill="#767073"/>
<rect id="Rectangle 1618" x="329" y="50.8" width="61" height="4" fill="#767073"/>
<rect id="Rectangle 1619" y="50.8" width="56" height="4" fill="#767073"/>
<rect id="Rectangle 1620" x="112.85" y="7.20001" width="24.3" height="4.5" fill="#F0EFF0"/>
<rect id="Rectangle 1621" x="139.85" y="7.20001" width="24.3" height="4.5" fill="#F0EFF0"/>
<rect id="Rectangle 1622" x="301.85" y="7.20001" width="24.3" height="4.5" fill="#F0EFF0"/>
<rect id="Rectangle 1623" x="58.8496" y="72" width="24.3" height="4.5" fill="#1F1E1F"/>
<rect id="Rectangle 1624" x="85.8496" y="72" width="24.3" height="4.5" fill="#1F1E1F"/>
<rect id="Rectangle 1625" x="112.85" y="72" width="24.3" height="4.5" fill="#1F1E1F"/>
<rect id="Rectangle 1626" x="139.85" y="72" width="24.3" height="4.5" fill="#1F1E1F"/>
<rect id="Rectangle 1627" x="166.85" y="72" width="24.3" height="4.5" fill="#1F1E1F"/>
<rect id="Rectangle 1628" x="193.85" y="72" width="24.3" height="4.5" fill="#1F1E1F"/>
<rect id="Rectangle 1629" x="220.85" y="72" width="24.3" height="4.5" fill="#1F1E1F"/>
<rect id="Rectangle 1630" x="247.85" y="72" width="24.3" height="4.5" fill="#1F1E1F"/>
<rect id="Rectangle 1631" x="274.85" y="72" width="24.3" height="4.5" fill="#1F1E1F"/>
<rect id="Rectangle 1632" x="301.85" y="72" width="24.3" height="4.5" fill="#1F1E1F"/>
<rect id="Rectangle 1633" x="329" y="71.8" width="61" height="5" fill="#1F1E1F"/>
<rect id="Rectangle 1634" y="71.8" width="56" height="5" fill="#1F1E1F"/>
<rect id="Rectangle 1635" x="58.8496" y="28.8" width="24.3" height="4.5" fill="#CDCBCC"/>
<rect id="Rectangle 1636" x="112.85" y="28.8" width="24.3" height="4.5" fill="#CDCBCC"/>
<rect id="Rectangle 1637" x="139.85" y="28.8" width="24.3" height="4.5" fill="#CDCBCC"/>
<rect id="Rectangle 1638" x="166.85" y="28.8" width="24.3" height="4.5" fill="#CDCBCC"/>
<rect id="Rectangle 1639" x="220.85" y="28.8" width="24.3" height="4.5" fill="#CDCBCC"/>
<rect id="Rectangle 1640" x="274.85" y="28.8" width="24.3" height="4.5" fill="#CDCBCC"/>
<rect id="Rectangle 1641" x="301.85" y="28.8" width="24.3" height="4.5" fill="#CDCBCC"/>
<rect id="Rectangle 1642" y="28.8" width="56" height="5" fill="#CDCBCC"/>
<rect id="Rectangle 1643" x="58.8496" y="57.6" width="24.3" height="4.5" fill="#545052"/>
<rect id="Rectangle 1644" x="85.8496" y="57.6" width="24.3" height="4.5" fill="#545052"/>
<rect id="Rectangle 1645" x="112.85" y="57.6" width="24.3" height="4.5" fill="#545052"/>
<rect id="Rectangle 1646" x="139.85" y="57.6" width="24.3" height="4.5" fill="#545052"/>
<rect id="Rectangle 1647" x="166.85" y="57.6" width="24.3" height="4.5" fill="#545052"/>
<rect id="Rectangle 1648" x="193.85" y="57.6" width="24.3" height="4.5" fill="#545052"/>
<rect id="Rectangle 1649" x="220.85" y="57.6" width="24.3" height="4.5" fill="#545052"/>
<rect id="Rectangle 1650" x="247.85" y="57.6" width="24.3" height="4.5" fill="#545052"/>
<rect id="Rectangle 1651" x="274.85" y="57.6" width="24.3" height="4.5" fill="#545052"/>
<rect id="Rectangle 1652" x="301.85" y="57.6" width="24.3" height="4.5" fill="#545052"/>
<rect id="Rectangle 1653" x="329" y="57.8" width="61" height="4" fill="#545052"/>
<rect id="Rectangle 1654" y="57.8" width="56" height="4" fill="#545052"/>
<rect id="Rectangle 1655" x="112.85" y="14.4" width="24.3" height="4.5" fill="#E6E5E6"/>
<rect id="Rectangle 1656" x="139.85" y="14.4" width="24.3" height="4.5" fill="#E6E5E6"/>
<rect id="Rectangle 1657" x="166.85" y="14.4" width="24.3" height="4.5" fill="#E6E5E6"/>
<rect id="Rectangle 1658" x="274.85" y="14.4" width="24.3" height="4.5" fill="#E6E5E6"/>
<rect id="Rectangle 1659" x="301.85" y="14.4" width="24.3" height="4.5" fill="#E6E5E6"/>
<rect id="Rectangle 1660" x="58.8496" y="43.2" width="24.3" height="4.5" fill="#888285"/>
<rect id="Rectangle 1661" x="85.8496" y="43.2" width="24.3" height="4.5" fill="#888285"/>
<rect id="Rectangle 1662" x="112.85" y="43.2" width="24.3" height="4.5" fill="#888285"/>
<rect id="Rectangle 1663" x="139.85" y="43.2" width="24.3" height="4.5" fill="#888285"/>
<rect id="Rectangle 1664" x="166.85" y="43.2" width="24.3" height="4.5" fill="#888285"/>
<rect id="Rectangle 1665" x="193.85" y="43.2" width="24.3" height="4.5" fill="#888285"/>
<rect id="Rectangle 1666" x="220.85" y="43.2" width="24.3" height="4.5" fill="#888285"/>
<rect id="Rectangle 1667" x="247.85" y="43.2" width="24.3" height="4.5" fill="#888285"/>
<rect id="Rectangle 1668" x="274.85" y="43.2" width="24.3" height="4.5" fill="#888285"/>
<rect id="Rectangle 1669" x="301.85" y="43.2" width="24.3" height="4.5" fill="#888285"/>
<rect id="Rectangle 1670" x="329" y="42.8" width="61" height="5" fill="#888285"/>
<rect id="Rectangle 1671" y="42.8" width="56" height="5" fill="#888285"/>
<rect id="Rectangle 1672" x="139.85" width="24.3" height="4.5" fill="white"/>
<g id="WORDS">
<path id="F" d="M39.8313 108.4V92.7616H50.3073V96.52H44.2809V98.8096H49.3569V102.352H44.2809V108.4H39.8313Z" fill="#F0EFF0"/>
<path id="u" d="M78.474 92.7616V100.991C78.474 103.367 78.0204 105.009 77.1564 106.154C75.99 107.709 73.8516 108.638 71.238 108.638C68.6676 108.638 66.4212 107.752 65.2332 106.089C64.4124 104.944 64.002 103.281 64.002 100.991V92.7616H68.4516V100.732C68.4516 102.244 68.6244 103.13 69.0564 103.734C69.4884 104.339 70.2444 104.771 71.3244 104.771C72.2964 104.771 73.0092 104.426 73.4628 103.864C73.9596 103.259 74.1972 102.266 74.1972 100.732V92.7616H78.474Z" fill="#F0EFF0"/>
<path id="u_2" d="M321.474 92.7616V100.991C321.474 103.367 321.02 105.009 320.156 106.154C318.99 107.709 316.852 108.638 314.238 108.638C311.668 108.638 309.421 107.752 308.233 106.089C307.412 104.944 307.002 103.281 307.002 100.991V92.7616H311.452V100.732C311.452 102.244 311.624 103.13 312.056 103.734C312.488 104.339 313.244 104.771 314.324 104.771C315.296 104.771 316.009 104.426 316.463 103.864C316.96 103.259 317.197 102.266 317.197 100.732V92.7616H321.474Z" fill="#F0EFF0"/>
<path id="E" d="M92.9314 108.4V92.7616H103.127V96.52H97.381V98.5072H102.241V102.05H97.381V104.642H103.386V108.4H92.9314Z" fill="#F0EFF0"/>
<path id="E_2" d="M173.931 108.4V92.7616H184.127V96.52H178.381V98.5072H183.241V102.05H178.381V104.642H184.386V108.4H173.931Z" fill="#F0EFF0"/>
<path id="A" d="M224.944 108.4L231.272 92.7616H235.657L241.986 108.4H237.148L236.046 105.203H230.689L229.544 108.4H224.944ZM233.432 97.5136H233.389C233.087 98.5072 232.784 99.4144 232.417 100.43L231.877 101.92H234.901L234.383 100.43C234.016 99.3712 233.735 98.4856 233.432 97.5136Z" fill="#F0EFF0"/>
<path id="A_2" d="M333.843 108.4L340.172 92.7616H344.557L350.885 108.4H346.047L344.945 105.203H339.589L338.444 108.4H333.843ZM342.332 97.5136H342.289C341.986 98.5072 341.684 99.4144 341.317 100.43L340.777 101.92H343.801L343.282 100.43C342.915 99.3712 342.634 98.4856 342.332 97.5136Z" fill="#F0EFF0"/>
<path id="C" d="M266.797 103.324V107.709C265.414 108.357 263.751 108.638 262.261 108.638C257.012 108.638 253.491 105.138 253.491 100.602C253.491 95.98 257.141 92.524 262.261 92.524C263.816 92.524 265.328 92.848 266.581 93.4096V97.7728C265.436 97.06 263.881 96.4768 262.347 96.4768C259.712 96.4768 257.941 98.1832 257.941 100.559C257.941 102.827 259.582 104.685 262.433 104.685C263.967 104.685 265.479 104.145 266.797 103.324Z" fill="#F0EFF0"/>
<path id="R" d="M118.132 108.4V92.7616H123.596C125.497 92.7616 126.901 92.9992 127.981 93.5392C129.493 94.2736 130.508 95.5912 130.508 97.6216C130.508 99.544 129.58 101.013 127.636 101.834L131.783 108.4H126.75L123.272 102.46H122.581V108.4H118.132ZM122.581 99.4144H123.683C124.504 99.4144 125.087 99.3064 125.432 99.0904C125.843 98.8528 126.059 98.4424 126.059 97.8592C126.059 97.1896 125.756 96.7792 125.303 96.5632C124.936 96.3904 124.417 96.304 123.402 96.304H122.581V99.4144Z" fill="#F0EFF0"/>
<path id="T" d="M149.897 108.4V96.52H144.929V92.7616H159.315V96.52H154.347V108.4H149.897Z" fill="#F0EFF0"/>
<path id="T_2" d="M284.897 108.4V96.52H279.929V92.7616H294.315V96.52H289.347V108.4H284.897Z" fill="#F0EFF0"/>
<path id="PLAY" fill-rule="evenodd" clip-rule="evenodd" d="M206.075 109.839C211.087 109.839 215.15 105.599 215.15 100.37C215.15 95.1396 211.087 90.9 206.075 90.9C201.063 90.9 197 95.1396 197 100.37C197 105.599 201.063 109.839 206.075 109.839ZM202.764 106.431L212.646 100.369L202.764 94.3079L202.764 106.431Z" fill="white"/>
</g>
</g>
</svg>
