<svg width="36" height="37" viewBox="0 0 36 37" fill="none" xmlns="http://www.w3.org/2000/svg">
<g id="evaPhoneCallOutline0">
<g id="evaPhoneCallOutline1">
<g id="evaPhoneCallOutline2">
<path id="Vector" d="M19.5928 11.505C21.0101 11.505 22.3693 12.068 23.3715 13.0702C24.3737 14.0724 24.9367 15.4316 24.9367 16.8489C24.9367 17.3213 25.1243 17.7744 25.4584 18.1084C25.7925 18.4425 26.2455 18.6302 26.718 18.6302C27.1904 18.6302 27.6435 18.4425 27.9775 18.1084C28.3116 17.7744 28.4993 17.3213 28.4993 16.8489C28.4993 14.4868 27.5609 12.2214 25.8906 10.5511C24.2203 8.8808 21.9549 7.94244 19.5928 7.94244C19.1204 7.94244 18.6673 8.13012 18.3333 8.46417C17.9992 8.79823 17.8115 9.25131 17.8115 9.72373C17.8115 10.1962 17.9992 10.6492 18.3333 10.9833C18.6673 11.3174 19.1204 11.505 19.5928 11.505Z" fill="#A63F73"/>
<path id="Vector_2" d="M19.5941 4.37972C22.9011 4.37972 26.0726 5.69341 28.411 8.03181C30.7494 10.3702 32.0631 13.5417 32.0631 16.8487C32.0631 17.3212 32.2508 17.7742 32.5849 18.1083C32.9189 18.4424 33.372 18.63 33.8444 18.63C34.3168 18.63 34.7699 18.4424 35.104 18.1083C35.438 17.7742 35.6257 17.3212 35.6257 16.8487C35.6257 12.5969 33.9367 8.51919 30.9302 5.51269C27.9237 2.50618 23.846 0.817139 19.5941 0.817139C19.1217 0.817139 18.6686 1.00481 18.3346 1.33887C18.0005 1.67292 17.8128 2.126 17.8128 2.59843C17.8128 3.07085 18.0005 3.52393 18.3346 3.85799C18.6686 4.19205 19.1217 4.37972 19.5941 4.37972ZM35.1804 25.5949C35.0824 25.3089 34.9133 25.0526 34.6889 24.85C34.4645 24.6475 34.1923 24.5053 33.8979 24.437L23.2101 21.9967C22.92 21.9309 22.6181 21.9388 22.3318 22.0197C22.0455 22.1006 21.7841 22.2519 21.5713 22.4598C20.4007 23.5468 18.9889 24.4146 17.6644 23.5214C15.7754 22.2476 14.1506 20.6197 12.8803 18.7287C11.9799 17.3882 12.9255 16.0205 13.9831 14.8003C14.1909 14.5875 14.3422 14.3261 14.4231 14.0398C14.504 13.7535 14.512 13.4516 14.4462 13.1615L12.0058 2.59843C11.9375 2.30397 11.7954 2.03175 11.5928 1.80738C11.3903 1.58301 11.1339 1.41387 10.848 1.3159C10.432 1.16732 10.0024 1.05993 9.56546 0.995267C9.11524 0.890875 8.65581 0.83121 8.19387 0.817139C6.0207 0.817139 3.93654 1.68043 2.39988 3.21708C0.863225 4.75374 -6.10352e-05 6.8379 -6.10352e-05 9.01107C0.0093654 16.2836 2.90252 23.2555 8.04495 28.3979C13.1874 33.5403 20.1593 36.4335 27.4318 36.4429C28.5078 36.4429 29.5733 36.231 30.5675 35.8192C31.5616 35.4074 32.4649 34.8038 33.2258 34.043C33.9866 33.2821 34.5902 32.3788 35.002 31.3847C35.4138 30.3905 35.6257 29.325 35.6257 28.249C35.6263 27.7956 35.5905 27.3429 35.5188 26.8952C35.444 26.4528 35.3307 26.0177 35.1804 25.5949ZM27.4318 32.8803C21.1027 32.8756 15.0342 30.3593 10.5589 25.884C6.08354 21.4086 3.56723 15.3401 3.56252 9.01107C3.56721 7.7842 4.05666 6.60892 4.92419 5.74139C5.79172 4.87386 6.967 4.38441 8.19387 4.37972C8.53794 4.37972 8.83646 4.61723 8.91378 4.95251L10.4442 11.5891C10.5875 12.2105 10.2919 12.8501 9.72577 13.1437C8.19387 13.9452 6.98259 14.5865 7.62385 15.9759C8.66809 18.9321 10.3577 21.6185 12.57 23.8401C14.7823 26.0616 17.4617 27.7624 20.4135 28.819C21.9098 29.4246 22.4976 28.3024 23.2992 26.7527C23.6038 26.175 24.2588 25.8744 24.8954 26.0202L31.4901 27.53C31.8254 27.6067 32.0631 27.905 32.0631 28.249C32.0584 29.4759 31.569 30.6511 30.7015 31.5187C29.8339 32.3862 28.6586 32.8756 27.4318 32.8803Z" fill="#A63F73"/>
</g>
</g>
</g>
</svg>
