<svg width="24" height="23" viewBox="0 0 24 23" fill="none" xmlns="http://www.w3.org/2000/svg">
<path d="M22.0012 15.6374C20.5012 15.6374 18.8762 15.3874 17.5012 14.8874H17.1262C16.7512 14.8874 16.5012 15.0124 16.2512 15.2624L13.5012 18.0124C10.0012 16.1374 7.00122 13.2624 5.25122 9.76242L8.00122 7.01242C8.37622 6.63742 8.50122 6.13742 8.25122 5.76242C7.87622 4.38742 7.62622 2.76242 7.62622 1.26242C7.62622 0.637421 7.00122 0.0124207 6.37622 0.0124207H2.00122C1.37622 0.0124207 0.751221 0.637421 0.751221 1.26242C0.751221 13.0124 10.2512 22.5124 22.0012 22.5124C22.6262 22.5124 23.2512 21.8874 23.2512 21.2624V16.8874C23.2512 16.2624 22.6262 15.6374 22.0012 15.6374ZM3.25122 2.51242H5.12622C5.25122 3.63742 5.50122 4.76242 5.75122 5.76242L4.25122 7.26242C3.75122 5.76242 3.37622 4.13742 3.25122 2.51242ZM20.7512 20.0124C19.1262 19.8874 17.5012 19.5124 16.0012 19.0124L17.5012 17.5124C18.5012 17.7624 19.6262 18.0124 20.7512 18.0124V20.0124Z" fill="#1F1E1F"/>
</svg>
